M48
; DRILL file {KiCad 9.0.2} date 2025-10-21T19:11:21-0600
; FORMAT={-:-/ absolute / metric / decimal}
; #@! TF.CreationDate,2025-10-21T19:11:21-06:00
; #@! TF.GenerationSoftware,Kicad,Pcbnew,9.0.2
; #@! TF.FileFunction,Plated,1,2,PTH
FMAT,2
METRIC
; #@! TA.AperFunction,Plated,PTH,ViaDrill
T1C0.300
%
G90
G05
T1
X134.6Y-97.4
X136.4Y-98.1
X136.8Y-105.5
X137.26Y-89.85
X137.9Y-76.7
X139.2Y-76.6
X139.45Y-83.25
X140.0Y-80.6
X140.4Y-75.9
X141.4Y-98.2
X141.458Y-82.658
X141.7Y-84.4
X142.0Y-100.5
X142.8Y-98.5
X143.0Y-90.7
X143.8Y-86.1
X143.9Y-101.3
X144.2Y-82.1
X144.4Y-95.0
X145.3Y-104.4
X145.7Y-83.5
X145.7Y-101.7
X146.0Y-76.3
X146.0Y-92.1
X146.8Y-99.4
X147.1Y-89.2
X147.5Y-90.7
X147.7Y-91.9
X147.7Y-98.5
X150.1Y-98.3
X150.3Y-93.5
X150.7Y-95.7
X151.4Y-101.3
X153.4Y-80.7
X153.749Y-92.3
X153.771Y-99.229
X153.772Y-90.361
X153.8Y-93.8
X154.3Y-84.5
X154.3Y-87.1
X154.8Y-93.4
X155.5Y-85.5
X155.6Y-80.7
X155.738Y-75.576
X155.834Y-96.334
X156.2Y-90.7
X156.376Y-76.176
X156.4Y-77.2
X156.434Y-95.734
X156.7Y-80.4
X157.044Y-104.256
X157.1Y-91.9
X157.2Y-79.7
X157.2Y-92.8
X157.5Y-75.9
X158.0Y-80.8
X158.2Y-97.1
X158.324Y-102.776
X158.5Y-90.9
X158.6Y-98.5
X158.9Y-94.1
X159.0Y-80.0
X159.0Y-99.9
X159.1Y-101.2
X159.5Y-72.1
X159.5Y-88.767
X159.6Y-79.4
X159.923Y-95.323
X160.5Y-93.0
X160.9Y-88.2
X161.2Y-79.6
X161.8Y-77.5
X161.8Y-88.8
X162.4Y-76.4
X162.423Y-91.726
X162.9Y-95.4
X163.3Y-77.5
X163.3Y-106.2
X163.4Y-104.4
X163.6Y-83.3
X164.1Y-80.9
X164.2Y-88.5
X164.2Y-101.3
X164.276Y-84.676
X164.4Y-78.2
X164.4Y-98.7
X164.7Y-80.2
X164.876Y-86.076
X165.1Y-91.0
X166.7Y-90.9
X166.7Y-94.571
X168.0Y-91.7
X168.1Y-81.8
X168.3Y-88.2
X168.6Y-86.3
X168.8Y-76.5
X169.425Y-98.1
M30
