%TF.GenerationSoftware,KiCad,Pcbnew,9.0.2*%
%TF.CreationDate,2025-10-21T19:11:23-06:00*%
%TF.ProjectId,Main Processing Board V2,4d61696e-2050-4726-9f63-657373696e67,rev?*%
%TF.SameCoordinates,Original*%
%TF.FileFunction,Legend,Bot*%
%TF.FilePolarity,Positive*%
%FSLAX46Y46*%
G04 Gerber Fmt 4.6, Leading zero omitted, Abs format (unit mm)*
G04 Created by KiCad (PCBNEW 9.0.2) date 2025-10-21 19:11:23*
%MOMM*%
%LPD*%
G01*
G04 APERTURE LIST*
%ADD10C,0.200000*%
%ADD11C,0.100000*%
%ADD12C,0.000000*%
G04 APERTURE END LIST*
D10*
X138504042Y-87073482D02*
X137404042Y-87073482D01*
X137770709Y-87440149D02*
X137770709Y-87859197D01*
X138504042Y-87597292D02*
X137561185Y-87597292D01*
X137561185Y-87597292D02*
X137456423Y-87649673D01*
X137456423Y-87649673D02*
X137404042Y-87754435D01*
X137404042Y-87754435D02*
X137404042Y-87859197D01*
X137927852Y-89430625D02*
X137927852Y-89063958D01*
X138504042Y-89063958D02*
X137404042Y-89063958D01*
X137404042Y-89063958D02*
X137404042Y-89587768D01*
X138504042Y-90163958D02*
X138451662Y-90059196D01*
X138451662Y-90059196D02*
X138399281Y-90006815D01*
X138399281Y-90006815D02*
X138294519Y-89954434D01*
X138294519Y-89954434D02*
X137980233Y-89954434D01*
X137980233Y-89954434D02*
X137875471Y-90006815D01*
X137875471Y-90006815D02*
X137823090Y-90059196D01*
X137823090Y-90059196D02*
X137770709Y-90163958D01*
X137770709Y-90163958D02*
X137770709Y-90321101D01*
X137770709Y-90321101D02*
X137823090Y-90425863D01*
X137823090Y-90425863D02*
X137875471Y-90478244D01*
X137875471Y-90478244D02*
X137980233Y-90530625D01*
X137980233Y-90530625D02*
X138294519Y-90530625D01*
X138294519Y-90530625D02*
X138399281Y-90478244D01*
X138399281Y-90478244D02*
X138451662Y-90425863D01*
X138451662Y-90425863D02*
X138504042Y-90321101D01*
X138504042Y-90321101D02*
X138504042Y-90163958D01*
X137770709Y-91473482D02*
X138504042Y-91473482D01*
X137770709Y-91002053D02*
X138346900Y-91002053D01*
X138346900Y-91002053D02*
X138451662Y-91054434D01*
X138451662Y-91054434D02*
X138504042Y-91159196D01*
X138504042Y-91159196D02*
X138504042Y-91316339D01*
X138504042Y-91316339D02*
X138451662Y-91421101D01*
X138451662Y-91421101D02*
X138399281Y-91473482D01*
X137770709Y-91997291D02*
X138504042Y-91997291D01*
X137875471Y-91997291D02*
X137823090Y-92049672D01*
X137823090Y-92049672D02*
X137770709Y-92154434D01*
X137770709Y-92154434D02*
X137770709Y-92311577D01*
X137770709Y-92311577D02*
X137823090Y-92416339D01*
X137823090Y-92416339D02*
X137927852Y-92468720D01*
X137927852Y-92468720D02*
X138504042Y-92468720D01*
X138504042Y-93463958D02*
X137404042Y-93463958D01*
X138451662Y-93463958D02*
X138504042Y-93359196D01*
X138504042Y-93359196D02*
X138504042Y-93149672D01*
X138504042Y-93149672D02*
X138451662Y-93044910D01*
X138451662Y-93044910D02*
X138399281Y-92992529D01*
X138399281Y-92992529D02*
X138294519Y-92940148D01*
X138294519Y-92940148D02*
X137980233Y-92940148D01*
X137980233Y-92940148D02*
X137875471Y-92992529D01*
X137875471Y-92992529D02*
X137823090Y-93044910D01*
X137823090Y-93044910D02*
X137770709Y-93149672D01*
X137770709Y-93149672D02*
X137770709Y-93359196D01*
X137770709Y-93359196D02*
X137823090Y-93463958D01*
X138504042Y-94825862D02*
X137404042Y-94825862D01*
X137404042Y-94825862D02*
X137404042Y-95244910D01*
X137404042Y-95244910D02*
X137456423Y-95349672D01*
X137456423Y-95349672D02*
X137508804Y-95402053D01*
X137508804Y-95402053D02*
X137613566Y-95454434D01*
X137613566Y-95454434D02*
X137770709Y-95454434D01*
X137770709Y-95454434D02*
X137875471Y-95402053D01*
X137875471Y-95402053D02*
X137927852Y-95349672D01*
X137927852Y-95349672D02*
X137980233Y-95244910D01*
X137980233Y-95244910D02*
X137980233Y-94825862D01*
X138504042Y-96083005D02*
X138451662Y-95978243D01*
X138451662Y-95978243D02*
X138346900Y-95925862D01*
X138346900Y-95925862D02*
X137404042Y-95925862D01*
X138451662Y-96921100D02*
X138504042Y-96816338D01*
X138504042Y-96816338D02*
X138504042Y-96606814D01*
X138504042Y-96606814D02*
X138451662Y-96502052D01*
X138451662Y-96502052D02*
X138346900Y-96449671D01*
X138346900Y-96449671D02*
X137927852Y-96449671D01*
X137927852Y-96449671D02*
X137823090Y-96502052D01*
X137823090Y-96502052D02*
X137770709Y-96606814D01*
X137770709Y-96606814D02*
X137770709Y-96816338D01*
X137770709Y-96816338D02*
X137823090Y-96921100D01*
X137823090Y-96921100D02*
X137927852Y-96973481D01*
X137927852Y-96973481D02*
X138032614Y-96973481D01*
X138032614Y-96973481D02*
X138137376Y-96449671D01*
X138504042Y-97916338D02*
X137927852Y-97916338D01*
X137927852Y-97916338D02*
X137823090Y-97863957D01*
X137823090Y-97863957D02*
X137770709Y-97759195D01*
X137770709Y-97759195D02*
X137770709Y-97549671D01*
X137770709Y-97549671D02*
X137823090Y-97444909D01*
X138451662Y-97916338D02*
X138504042Y-97811576D01*
X138504042Y-97811576D02*
X138504042Y-97549671D01*
X138504042Y-97549671D02*
X138451662Y-97444909D01*
X138451662Y-97444909D02*
X138346900Y-97392528D01*
X138346900Y-97392528D02*
X138242138Y-97392528D01*
X138242138Y-97392528D02*
X138137376Y-97444909D01*
X138137376Y-97444909D02*
X138084995Y-97549671D01*
X138084995Y-97549671D02*
X138084995Y-97811576D01*
X138084995Y-97811576D02*
X138032614Y-97916338D01*
X138451662Y-98387766D02*
X138504042Y-98492528D01*
X138504042Y-98492528D02*
X138504042Y-98702052D01*
X138504042Y-98702052D02*
X138451662Y-98806814D01*
X138451662Y-98806814D02*
X138346900Y-98859195D01*
X138346900Y-98859195D02*
X138294519Y-98859195D01*
X138294519Y-98859195D02*
X138189757Y-98806814D01*
X138189757Y-98806814D02*
X138137376Y-98702052D01*
X138137376Y-98702052D02*
X138137376Y-98544909D01*
X138137376Y-98544909D02*
X138084995Y-98440147D01*
X138084995Y-98440147D02*
X137980233Y-98387766D01*
X137980233Y-98387766D02*
X137927852Y-98387766D01*
X137927852Y-98387766D02*
X137823090Y-98440147D01*
X137823090Y-98440147D02*
X137770709Y-98544909D01*
X137770709Y-98544909D02*
X137770709Y-98702052D01*
X137770709Y-98702052D02*
X137823090Y-98806814D01*
X138451662Y-99749671D02*
X138504042Y-99644909D01*
X138504042Y-99644909D02*
X138504042Y-99435385D01*
X138504042Y-99435385D02*
X138451662Y-99330623D01*
X138451662Y-99330623D02*
X138346900Y-99278242D01*
X138346900Y-99278242D02*
X137927852Y-99278242D01*
X137927852Y-99278242D02*
X137823090Y-99330623D01*
X137823090Y-99330623D02*
X137770709Y-99435385D01*
X137770709Y-99435385D02*
X137770709Y-99644909D01*
X137770709Y-99644909D02*
X137823090Y-99749671D01*
X137823090Y-99749671D02*
X137927852Y-99802052D01*
X137927852Y-99802052D02*
X138032614Y-99802052D01*
X138032614Y-99802052D02*
X138137376Y-99278242D01*
X138399281Y-101740147D02*
X138451662Y-101687766D01*
X138451662Y-101687766D02*
X138504042Y-101530623D01*
X138504042Y-101530623D02*
X138504042Y-101425861D01*
X138504042Y-101425861D02*
X138451662Y-101268718D01*
X138451662Y-101268718D02*
X138346900Y-101163956D01*
X138346900Y-101163956D02*
X138242138Y-101111575D01*
X138242138Y-101111575D02*
X138032614Y-101059194D01*
X138032614Y-101059194D02*
X137875471Y-101059194D01*
X137875471Y-101059194D02*
X137665947Y-101111575D01*
X137665947Y-101111575D02*
X137561185Y-101163956D01*
X137561185Y-101163956D02*
X137456423Y-101268718D01*
X137456423Y-101268718D02*
X137404042Y-101425861D01*
X137404042Y-101425861D02*
X137404042Y-101530623D01*
X137404042Y-101530623D02*
X137456423Y-101687766D01*
X137456423Y-101687766D02*
X137508804Y-101740147D01*
X138504042Y-102368718D02*
X138451662Y-102263956D01*
X138451662Y-102263956D02*
X138399281Y-102211575D01*
X138399281Y-102211575D02*
X138294519Y-102159194D01*
X138294519Y-102159194D02*
X137980233Y-102159194D01*
X137980233Y-102159194D02*
X137875471Y-102211575D01*
X137875471Y-102211575D02*
X137823090Y-102263956D01*
X137823090Y-102263956D02*
X137770709Y-102368718D01*
X137770709Y-102368718D02*
X137770709Y-102525861D01*
X137770709Y-102525861D02*
X137823090Y-102630623D01*
X137823090Y-102630623D02*
X137875471Y-102683004D01*
X137875471Y-102683004D02*
X137980233Y-102735385D01*
X137980233Y-102735385D02*
X138294519Y-102735385D01*
X138294519Y-102735385D02*
X138399281Y-102683004D01*
X138399281Y-102683004D02*
X138451662Y-102630623D01*
X138451662Y-102630623D02*
X138504042Y-102525861D01*
X138504042Y-102525861D02*
X138504042Y-102368718D01*
X137770709Y-103206813D02*
X138504042Y-103206813D01*
X137875471Y-103206813D02*
X137823090Y-103259194D01*
X137823090Y-103259194D02*
X137770709Y-103363956D01*
X137770709Y-103363956D02*
X137770709Y-103521099D01*
X137770709Y-103521099D02*
X137823090Y-103625861D01*
X137823090Y-103625861D02*
X137927852Y-103678242D01*
X137927852Y-103678242D02*
X138504042Y-103678242D01*
X137770709Y-104044908D02*
X137770709Y-104463956D01*
X137404042Y-104202051D02*
X138346900Y-104202051D01*
X138346900Y-104202051D02*
X138451662Y-104254432D01*
X138451662Y-104254432D02*
X138504042Y-104359194D01*
X138504042Y-104359194D02*
X138504042Y-104463956D01*
X138504042Y-105302051D02*
X137927852Y-105302051D01*
X137927852Y-105302051D02*
X137823090Y-105249670D01*
X137823090Y-105249670D02*
X137770709Y-105144908D01*
X137770709Y-105144908D02*
X137770709Y-104935384D01*
X137770709Y-104935384D02*
X137823090Y-104830622D01*
X138451662Y-105302051D02*
X138504042Y-105197289D01*
X138504042Y-105197289D02*
X138504042Y-104935384D01*
X138504042Y-104935384D02*
X138451662Y-104830622D01*
X138451662Y-104830622D02*
X138346900Y-104778241D01*
X138346900Y-104778241D02*
X138242138Y-104778241D01*
X138242138Y-104778241D02*
X138137376Y-104830622D01*
X138137376Y-104830622D02*
X138084995Y-104935384D01*
X138084995Y-104935384D02*
X138084995Y-105197289D01*
X138084995Y-105197289D02*
X138032614Y-105302051D01*
X138451662Y-106297289D02*
X138504042Y-106192527D01*
X138504042Y-106192527D02*
X138504042Y-105983003D01*
X138504042Y-105983003D02*
X138451662Y-105878241D01*
X138451662Y-105878241D02*
X138399281Y-105825860D01*
X138399281Y-105825860D02*
X138294519Y-105773479D01*
X138294519Y-105773479D02*
X137980233Y-105773479D01*
X137980233Y-105773479D02*
X137875471Y-105825860D01*
X137875471Y-105825860D02*
X137823090Y-105878241D01*
X137823090Y-105878241D02*
X137770709Y-105983003D01*
X137770709Y-105983003D02*
X137770709Y-106192527D01*
X137770709Y-106192527D02*
X137823090Y-106297289D01*
X137770709Y-106611574D02*
X137770709Y-107030622D01*
X137404042Y-106768717D02*
X138346900Y-106768717D01*
X138346900Y-106768717D02*
X138451662Y-106821098D01*
X138451662Y-106821098D02*
X138504042Y-106925860D01*
X138504042Y-106925860D02*
X138504042Y-107030622D01*
X140222600Y-87021101D02*
X140274980Y-87125863D01*
X140274980Y-87125863D02*
X140274980Y-87335387D01*
X140274980Y-87335387D02*
X140222600Y-87440149D01*
X140222600Y-87440149D02*
X140117838Y-87492530D01*
X140117838Y-87492530D02*
X140065457Y-87492530D01*
X140065457Y-87492530D02*
X139960695Y-87440149D01*
X139960695Y-87440149D02*
X139908314Y-87335387D01*
X139908314Y-87335387D02*
X139908314Y-87178244D01*
X139908314Y-87178244D02*
X139855933Y-87073482D01*
X139855933Y-87073482D02*
X139751171Y-87021101D01*
X139751171Y-87021101D02*
X139698790Y-87021101D01*
X139698790Y-87021101D02*
X139594028Y-87073482D01*
X139594028Y-87073482D02*
X139541647Y-87178244D01*
X139541647Y-87178244D02*
X139541647Y-87335387D01*
X139541647Y-87335387D02*
X139594028Y-87440149D01*
X139541647Y-87963958D02*
X140641647Y-87963958D01*
X139594028Y-87963958D02*
X139541647Y-88068720D01*
X139541647Y-88068720D02*
X139541647Y-88278244D01*
X139541647Y-88278244D02*
X139594028Y-88383006D01*
X139594028Y-88383006D02*
X139646409Y-88435387D01*
X139646409Y-88435387D02*
X139751171Y-88487768D01*
X139751171Y-88487768D02*
X140065457Y-88487768D01*
X140065457Y-88487768D02*
X140170219Y-88435387D01*
X140170219Y-88435387D02*
X140222600Y-88383006D01*
X140222600Y-88383006D02*
X140274980Y-88278244D01*
X140274980Y-88278244D02*
X140274980Y-88068720D01*
X140274980Y-88068720D02*
X140222600Y-87963958D01*
X140274980Y-89430625D02*
X139698790Y-89430625D01*
X139698790Y-89430625D02*
X139594028Y-89378244D01*
X139594028Y-89378244D02*
X139541647Y-89273482D01*
X139541647Y-89273482D02*
X139541647Y-89063958D01*
X139541647Y-89063958D02*
X139594028Y-88959196D01*
X140222600Y-89430625D02*
X140274980Y-89325863D01*
X140274980Y-89325863D02*
X140274980Y-89063958D01*
X140274980Y-89063958D02*
X140222600Y-88959196D01*
X140222600Y-88959196D02*
X140117838Y-88906815D01*
X140117838Y-88906815D02*
X140013076Y-88906815D01*
X140013076Y-88906815D02*
X139908314Y-88959196D01*
X139908314Y-88959196D02*
X139855933Y-89063958D01*
X139855933Y-89063958D02*
X139855933Y-89325863D01*
X139855933Y-89325863D02*
X139803552Y-89430625D01*
X140222600Y-90425863D02*
X140274980Y-90321101D01*
X140274980Y-90321101D02*
X140274980Y-90111577D01*
X140274980Y-90111577D02*
X140222600Y-90006815D01*
X140222600Y-90006815D02*
X140170219Y-89954434D01*
X140170219Y-89954434D02*
X140065457Y-89902053D01*
X140065457Y-89902053D02*
X139751171Y-89902053D01*
X139751171Y-89902053D02*
X139646409Y-89954434D01*
X139646409Y-89954434D02*
X139594028Y-90006815D01*
X139594028Y-90006815D02*
X139541647Y-90111577D01*
X139541647Y-90111577D02*
X139541647Y-90321101D01*
X139541647Y-90321101D02*
X139594028Y-90425863D01*
X140222600Y-91316339D02*
X140274980Y-91211577D01*
X140274980Y-91211577D02*
X140274980Y-91002053D01*
X140274980Y-91002053D02*
X140222600Y-90897291D01*
X140222600Y-90897291D02*
X140117838Y-90844910D01*
X140117838Y-90844910D02*
X139698790Y-90844910D01*
X139698790Y-90844910D02*
X139594028Y-90897291D01*
X139594028Y-90897291D02*
X139541647Y-91002053D01*
X139541647Y-91002053D02*
X139541647Y-91211577D01*
X139541647Y-91211577D02*
X139594028Y-91316339D01*
X139594028Y-91316339D02*
X139698790Y-91368720D01*
X139698790Y-91368720D02*
X139803552Y-91368720D01*
X139803552Y-91368720D02*
X139908314Y-90844910D01*
X140222600Y-92311577D02*
X140274980Y-92206815D01*
X140274980Y-92206815D02*
X140274980Y-91997291D01*
X140274980Y-91997291D02*
X140222600Y-91892529D01*
X140222600Y-91892529D02*
X140170219Y-91840148D01*
X140170219Y-91840148D02*
X140065457Y-91787767D01*
X140065457Y-91787767D02*
X139751171Y-91787767D01*
X139751171Y-91787767D02*
X139646409Y-91840148D01*
X139646409Y-91840148D02*
X139594028Y-91892529D01*
X139594028Y-91892529D02*
X139541647Y-91997291D01*
X139541647Y-91997291D02*
X139541647Y-92206815D01*
X139541647Y-92206815D02*
X139594028Y-92311577D01*
X140274980Y-92783005D02*
X139541647Y-92783005D01*
X139751171Y-92783005D02*
X139646409Y-92835386D01*
X139646409Y-92835386D02*
X139594028Y-92887767D01*
X139594028Y-92887767D02*
X139541647Y-92992529D01*
X139541647Y-92992529D02*
X139541647Y-93097291D01*
X140274980Y-93935386D02*
X139698790Y-93935386D01*
X139698790Y-93935386D02*
X139594028Y-93883005D01*
X139594028Y-93883005D02*
X139541647Y-93778243D01*
X139541647Y-93778243D02*
X139541647Y-93568719D01*
X139541647Y-93568719D02*
X139594028Y-93463957D01*
X140222600Y-93935386D02*
X140274980Y-93830624D01*
X140274980Y-93830624D02*
X140274980Y-93568719D01*
X140274980Y-93568719D02*
X140222600Y-93463957D01*
X140222600Y-93463957D02*
X140117838Y-93411576D01*
X140117838Y-93411576D02*
X140013076Y-93411576D01*
X140013076Y-93411576D02*
X139908314Y-93463957D01*
X139908314Y-93463957D02*
X139855933Y-93568719D01*
X139855933Y-93568719D02*
X139855933Y-93830624D01*
X139855933Y-93830624D02*
X139803552Y-93935386D01*
X139541647Y-94302052D02*
X139541647Y-94721100D01*
X140274980Y-94459195D02*
X139332123Y-94459195D01*
X139332123Y-94459195D02*
X139227361Y-94511576D01*
X139227361Y-94511576D02*
X139174980Y-94616338D01*
X139174980Y-94616338D02*
X139174980Y-94721100D01*
X139541647Y-94930623D02*
X139541647Y-95349671D01*
X139174980Y-95087766D02*
X140117838Y-95087766D01*
X140117838Y-95087766D02*
X140222600Y-95140147D01*
X140222600Y-95140147D02*
X140274980Y-95244909D01*
X140274980Y-95244909D02*
X140274980Y-95349671D01*
X140222600Y-96187766D02*
X140274980Y-96083004D01*
X140274980Y-96083004D02*
X140274980Y-95873480D01*
X140274980Y-95873480D02*
X140222600Y-95768718D01*
X140222600Y-95768718D02*
X140170219Y-95716337D01*
X140170219Y-95716337D02*
X140065457Y-95663956D01*
X140065457Y-95663956D02*
X139751171Y-95663956D01*
X139751171Y-95663956D02*
X139646409Y-95716337D01*
X139646409Y-95716337D02*
X139594028Y-95768718D01*
X139594028Y-95768718D02*
X139541647Y-95873480D01*
X139541647Y-95873480D02*
X139541647Y-96083004D01*
X139541647Y-96083004D02*
X139594028Y-96187766D01*
X140274980Y-96816337D02*
X140222600Y-96711575D01*
X140222600Y-96711575D02*
X140117838Y-96659194D01*
X140117838Y-96659194D02*
X139174980Y-96659194D01*
X139541647Y-97706813D02*
X140274980Y-97706813D01*
X139541647Y-97235384D02*
X140117838Y-97235384D01*
X140117838Y-97235384D02*
X140222600Y-97287765D01*
X140222600Y-97287765D02*
X140274980Y-97392527D01*
X140274980Y-97392527D02*
X140274980Y-97549670D01*
X140274980Y-97549670D02*
X140222600Y-97654432D01*
X140222600Y-97654432D02*
X140170219Y-97706813D01*
X140274980Y-98230622D02*
X139174980Y-98230622D01*
X139594028Y-98230622D02*
X139541647Y-98335384D01*
X139541647Y-98335384D02*
X139541647Y-98544908D01*
X139541647Y-98544908D02*
X139594028Y-98649670D01*
X139594028Y-98649670D02*
X139646409Y-98702051D01*
X139646409Y-98702051D02*
X139751171Y-98754432D01*
X139751171Y-98754432D02*
X140065457Y-98754432D01*
X140065457Y-98754432D02*
X140170219Y-98702051D01*
X140170219Y-98702051D02*
X140222600Y-98649670D01*
X140222600Y-98649670D02*
X140274980Y-98544908D01*
X140274980Y-98544908D02*
X140274980Y-98335384D01*
X140274980Y-98335384D02*
X140222600Y-98230622D01*
X139751171Y-99906813D02*
X139698790Y-99854432D01*
X139698790Y-99854432D02*
X139646409Y-99749670D01*
X139646409Y-99749670D02*
X139646409Y-99644908D01*
X139646409Y-99644908D02*
X139698790Y-99540146D01*
X139698790Y-99540146D02*
X139751171Y-99487765D01*
X139751171Y-99487765D02*
X139855933Y-99435384D01*
X139855933Y-99435384D02*
X139960695Y-99435384D01*
X139960695Y-99435384D02*
X140065457Y-99487765D01*
X140065457Y-99487765D02*
X140117838Y-99540146D01*
X140117838Y-99540146D02*
X140170219Y-99644908D01*
X140170219Y-99644908D02*
X140170219Y-99749670D01*
X140170219Y-99749670D02*
X140117838Y-99854432D01*
X140117838Y-99854432D02*
X140065457Y-99906813D01*
X139646409Y-99906813D02*
X140065457Y-99906813D01*
X140065457Y-99906813D02*
X140117838Y-99959194D01*
X140117838Y-99959194D02*
X140117838Y-100011575D01*
X140117838Y-100011575D02*
X140065457Y-100116336D01*
X140065457Y-100116336D02*
X139960695Y-100168717D01*
X139960695Y-100168717D02*
X139698790Y-100168717D01*
X139698790Y-100168717D02*
X139541647Y-100063956D01*
X139541647Y-100063956D02*
X139436885Y-99906813D01*
X139436885Y-99906813D02*
X139384504Y-99697289D01*
X139384504Y-99697289D02*
X139436885Y-99487765D01*
X139436885Y-99487765D02*
X139541647Y-99330622D01*
X139541647Y-99330622D02*
X139698790Y-99225860D01*
X139698790Y-99225860D02*
X139908314Y-99173479D01*
X139908314Y-99173479D02*
X140117838Y-99225860D01*
X140117838Y-99225860D02*
X140274980Y-99330622D01*
X140274980Y-99330622D02*
X140379742Y-99487765D01*
X140379742Y-99487765D02*
X140432123Y-99697289D01*
X140432123Y-99697289D02*
X140379742Y-99906813D01*
X140379742Y-99906813D02*
X140274980Y-100063956D01*
X140274980Y-100640146D02*
X139174980Y-100640146D01*
X139594028Y-100640146D02*
X139541647Y-100744908D01*
X139541647Y-100744908D02*
X139541647Y-100954432D01*
X139541647Y-100954432D02*
X139594028Y-101059194D01*
X139594028Y-101059194D02*
X139646409Y-101111575D01*
X139646409Y-101111575D02*
X139751171Y-101163956D01*
X139751171Y-101163956D02*
X140065457Y-101163956D01*
X140065457Y-101163956D02*
X140170219Y-101111575D01*
X140170219Y-101111575D02*
X140222600Y-101059194D01*
X140222600Y-101059194D02*
X140274980Y-100954432D01*
X140274980Y-100954432D02*
X140274980Y-100744908D01*
X140274980Y-100744908D02*
X140222600Y-100640146D01*
X139541647Y-101530622D02*
X140274980Y-101792527D01*
X139541647Y-102054432D02*
X140274980Y-101792527D01*
X140274980Y-101792527D02*
X140536885Y-101687765D01*
X140536885Y-101687765D02*
X140589266Y-101635384D01*
X140589266Y-101635384D02*
X140641647Y-101530622D01*
X139541647Y-102944908D02*
X140274980Y-102944908D01*
X139541647Y-102473479D02*
X140117838Y-102473479D01*
X140117838Y-102473479D02*
X140222600Y-102525860D01*
X140222600Y-102525860D02*
X140274980Y-102630622D01*
X140274980Y-102630622D02*
X140274980Y-102787765D01*
X140274980Y-102787765D02*
X140222600Y-102892527D01*
X140222600Y-102892527D02*
X140170219Y-102944908D01*
X140170219Y-103468717D02*
X140222600Y-103521098D01*
X140222600Y-103521098D02*
X140274980Y-103468717D01*
X140274980Y-103468717D02*
X140222600Y-103416336D01*
X140222600Y-103416336D02*
X140170219Y-103468717D01*
X140170219Y-103468717D02*
X140274980Y-103468717D01*
X140222600Y-104411575D02*
X140274980Y-104306813D01*
X140274980Y-104306813D02*
X140274980Y-104097289D01*
X140274980Y-104097289D02*
X140222600Y-103992527D01*
X140222600Y-103992527D02*
X140117838Y-103940146D01*
X140117838Y-103940146D02*
X139698790Y-103940146D01*
X139698790Y-103940146D02*
X139594028Y-103992527D01*
X139594028Y-103992527D02*
X139541647Y-104097289D01*
X139541647Y-104097289D02*
X139541647Y-104306813D01*
X139541647Y-104306813D02*
X139594028Y-104411575D01*
X139594028Y-104411575D02*
X139698790Y-104463956D01*
X139698790Y-104463956D02*
X139803552Y-104463956D01*
X139803552Y-104463956D02*
X139908314Y-103940146D01*
X140274980Y-105406813D02*
X139174980Y-105406813D01*
X140222600Y-105406813D02*
X140274980Y-105302051D01*
X140274980Y-105302051D02*
X140274980Y-105092527D01*
X140274980Y-105092527D02*
X140222600Y-104987765D01*
X140222600Y-104987765D02*
X140170219Y-104935384D01*
X140170219Y-104935384D02*
X140065457Y-104883003D01*
X140065457Y-104883003D02*
X139751171Y-104883003D01*
X139751171Y-104883003D02*
X139646409Y-104935384D01*
X139646409Y-104935384D02*
X139594028Y-104987765D01*
X139594028Y-104987765D02*
X139541647Y-105092527D01*
X139541647Y-105092527D02*
X139541647Y-105302051D01*
X139541647Y-105302051D02*
X139594028Y-105406813D01*
X139541647Y-106402051D02*
X140274980Y-106402051D01*
X139541647Y-105930622D02*
X140117838Y-105930622D01*
X140117838Y-105930622D02*
X140222600Y-105983003D01*
X140222600Y-105983003D02*
X140274980Y-106087765D01*
X140274980Y-106087765D02*
X140274980Y-106244908D01*
X140274980Y-106244908D02*
X140222600Y-106349670D01*
X140222600Y-106349670D02*
X140170219Y-106402051D01*
D11*
X161912782Y-82196315D02*
X161769925Y-82243934D01*
X161769925Y-82243934D02*
X161722306Y-82291553D01*
X161722306Y-82291553D02*
X161674687Y-82386791D01*
X161674687Y-82386791D02*
X161674687Y-82529648D01*
X161674687Y-82529648D02*
X161722306Y-82624886D01*
X161722306Y-82624886D02*
X161769925Y-82672506D01*
X161769925Y-82672506D02*
X161865163Y-82720125D01*
X161865163Y-82720125D02*
X162246115Y-82720125D01*
X162246115Y-82720125D02*
X162246115Y-81720125D01*
X162246115Y-81720125D02*
X161912782Y-81720125D01*
X161912782Y-81720125D02*
X161817544Y-81767744D01*
X161817544Y-81767744D02*
X161769925Y-81815363D01*
X161769925Y-81815363D02*
X161722306Y-81910601D01*
X161722306Y-81910601D02*
X161722306Y-82005839D01*
X161722306Y-82005839D02*
X161769925Y-82101077D01*
X161769925Y-82101077D02*
X161817544Y-82148696D01*
X161817544Y-82148696D02*
X161912782Y-82196315D01*
X161912782Y-82196315D02*
X162246115Y-82196315D01*
X161055639Y-82243934D02*
X161055639Y-82720125D01*
X161388972Y-81720125D02*
X161055639Y-82243934D01*
X161055639Y-82243934D02*
X160722306Y-81720125D01*
X160388972Y-81720125D02*
X160388972Y-82529648D01*
X160388972Y-82529648D02*
X160341353Y-82624886D01*
X160341353Y-82624886D02*
X160293734Y-82672506D01*
X160293734Y-82672506D02*
X160198496Y-82720125D01*
X160198496Y-82720125D02*
X160008020Y-82720125D01*
X160008020Y-82720125D02*
X159912782Y-82672506D01*
X159912782Y-82672506D02*
X159865163Y-82624886D01*
X159865163Y-82624886D02*
X159817544Y-82529648D01*
X159817544Y-82529648D02*
X159817544Y-81720125D01*
X158579448Y-82720125D02*
X158579448Y-81720125D01*
X158579448Y-81720125D02*
X158198496Y-81720125D01*
X158198496Y-81720125D02*
X158103258Y-81767744D01*
X158103258Y-81767744D02*
X158055639Y-81815363D01*
X158055639Y-81815363D02*
X158008020Y-81910601D01*
X158008020Y-81910601D02*
X158008020Y-82053458D01*
X158008020Y-82053458D02*
X158055639Y-82148696D01*
X158055639Y-82148696D02*
X158103258Y-82196315D01*
X158103258Y-82196315D02*
X158198496Y-82243934D01*
X158198496Y-82243934D02*
X158579448Y-82243934D01*
X157388972Y-81720125D02*
X157198496Y-81720125D01*
X157198496Y-81720125D02*
X157103258Y-81767744D01*
X157103258Y-81767744D02*
X157008020Y-81862982D01*
X157008020Y-81862982D02*
X156960401Y-82053458D01*
X156960401Y-82053458D02*
X156960401Y-82386791D01*
X156960401Y-82386791D02*
X157008020Y-82577267D01*
X157008020Y-82577267D02*
X157103258Y-82672506D01*
X157103258Y-82672506D02*
X157198496Y-82720125D01*
X157198496Y-82720125D02*
X157388972Y-82720125D01*
X157388972Y-82720125D02*
X157484210Y-82672506D01*
X157484210Y-82672506D02*
X157579448Y-82577267D01*
X157579448Y-82577267D02*
X157627067Y-82386791D01*
X157627067Y-82386791D02*
X157627067Y-82053458D01*
X157627067Y-82053458D02*
X157579448Y-81862982D01*
X157579448Y-81862982D02*
X157484210Y-81767744D01*
X157484210Y-81767744D02*
X157388972Y-81720125D01*
X155960401Y-82624886D02*
X156008020Y-82672506D01*
X156008020Y-82672506D02*
X156150877Y-82720125D01*
X156150877Y-82720125D02*
X156246115Y-82720125D01*
X156246115Y-82720125D02*
X156388972Y-82672506D01*
X156388972Y-82672506D02*
X156484210Y-82577267D01*
X156484210Y-82577267D02*
X156531829Y-82482029D01*
X156531829Y-82482029D02*
X156579448Y-82291553D01*
X156579448Y-82291553D02*
X156579448Y-82148696D01*
X156579448Y-82148696D02*
X156531829Y-81958220D01*
X156531829Y-81958220D02*
X156484210Y-81862982D01*
X156484210Y-81862982D02*
X156388972Y-81767744D01*
X156388972Y-81767744D02*
X156246115Y-81720125D01*
X156246115Y-81720125D02*
X156150877Y-81720125D01*
X156150877Y-81720125D02*
X156008020Y-81767744D01*
X156008020Y-81767744D02*
X155960401Y-81815363D01*
X155531829Y-82720125D02*
X155531829Y-81720125D01*
X154960401Y-82720125D02*
X155388972Y-82148696D01*
X154960401Y-81720125D02*
X155531829Y-82291553D01*
X154531829Y-82196315D02*
X154198496Y-82196315D01*
X154055639Y-82720125D02*
X154531829Y-82720125D01*
X154531829Y-82720125D02*
X154531829Y-81720125D01*
X154531829Y-81720125D02*
X154055639Y-81720125D01*
X153769924Y-81720125D02*
X153198496Y-81720125D01*
X153484210Y-82720125D02*
X153484210Y-81720125D01*
X152198496Y-82815363D02*
X152293734Y-82767744D01*
X152293734Y-82767744D02*
X152388972Y-82672506D01*
X152388972Y-82672506D02*
X152531829Y-82529648D01*
X152531829Y-82529648D02*
X152627067Y-82482029D01*
X152627067Y-82482029D02*
X152722305Y-82482029D01*
X152674686Y-82720125D02*
X152769924Y-82672506D01*
X152769924Y-82672506D02*
X152865162Y-82577267D01*
X152865162Y-82577267D02*
X152912781Y-82386791D01*
X152912781Y-82386791D02*
X152912781Y-82053458D01*
X152912781Y-82053458D02*
X152865162Y-81862982D01*
X152865162Y-81862982D02*
X152769924Y-81767744D01*
X152769924Y-81767744D02*
X152674686Y-81720125D01*
X152674686Y-81720125D02*
X152484210Y-81720125D01*
X152484210Y-81720125D02*
X152388972Y-81767744D01*
X152388972Y-81767744D02*
X152293734Y-81862982D01*
X152293734Y-81862982D02*
X152246115Y-82053458D01*
X152246115Y-82053458D02*
X152246115Y-82386791D01*
X152246115Y-82386791D02*
X152293734Y-82577267D01*
X152293734Y-82577267D02*
X152388972Y-82672506D01*
X152388972Y-82672506D02*
X152484210Y-82720125D01*
X152484210Y-82720125D02*
X152674686Y-82720125D01*
X151817543Y-81720125D02*
X151817543Y-82529648D01*
X151817543Y-82529648D02*
X151769924Y-82624886D01*
X151769924Y-82624886D02*
X151722305Y-82672506D01*
X151722305Y-82672506D02*
X151627067Y-82720125D01*
X151627067Y-82720125D02*
X151436591Y-82720125D01*
X151436591Y-82720125D02*
X151341353Y-82672506D01*
X151341353Y-82672506D02*
X151293734Y-82624886D01*
X151293734Y-82624886D02*
X151246115Y-82529648D01*
X151246115Y-82529648D02*
X151246115Y-81720125D01*
X150436591Y-82196315D02*
X150293734Y-82243934D01*
X150293734Y-82243934D02*
X150246115Y-82291553D01*
X150246115Y-82291553D02*
X150198496Y-82386791D01*
X150198496Y-82386791D02*
X150198496Y-82529648D01*
X150198496Y-82529648D02*
X150246115Y-82624886D01*
X150246115Y-82624886D02*
X150293734Y-82672506D01*
X150293734Y-82672506D02*
X150388972Y-82720125D01*
X150388972Y-82720125D02*
X150769924Y-82720125D01*
X150769924Y-82720125D02*
X150769924Y-81720125D01*
X150769924Y-81720125D02*
X150436591Y-81720125D01*
X150436591Y-81720125D02*
X150341353Y-81767744D01*
X150341353Y-81767744D02*
X150293734Y-81815363D01*
X150293734Y-81815363D02*
X150246115Y-81910601D01*
X150246115Y-81910601D02*
X150246115Y-82005839D01*
X150246115Y-82005839D02*
X150293734Y-82101077D01*
X150293734Y-82101077D02*
X150341353Y-82148696D01*
X150341353Y-82148696D02*
X150436591Y-82196315D01*
X150436591Y-82196315D02*
X150769924Y-82196315D01*
X149769924Y-82196315D02*
X149436591Y-82196315D01*
X149293734Y-82720125D02*
X149769924Y-82720125D01*
X149769924Y-82720125D02*
X149769924Y-81720125D01*
X149769924Y-81720125D02*
X149293734Y-81720125D01*
X148150876Y-81815363D02*
X148103257Y-81767744D01*
X148103257Y-81767744D02*
X148008019Y-81720125D01*
X148008019Y-81720125D02*
X147769924Y-81720125D01*
X147769924Y-81720125D02*
X147674686Y-81767744D01*
X147674686Y-81767744D02*
X147627067Y-81815363D01*
X147627067Y-81815363D02*
X147579448Y-81910601D01*
X147579448Y-81910601D02*
X147579448Y-82005839D01*
X147579448Y-82005839D02*
X147627067Y-82148696D01*
X147627067Y-82148696D02*
X148198495Y-82720125D01*
X148198495Y-82720125D02*
X147579448Y-82720125D01*
X146960400Y-81720125D02*
X146865162Y-81720125D01*
X146865162Y-81720125D02*
X146769924Y-81767744D01*
X146769924Y-81767744D02*
X146722305Y-81815363D01*
X146722305Y-81815363D02*
X146674686Y-81910601D01*
X146674686Y-81910601D02*
X146627067Y-82101077D01*
X146627067Y-82101077D02*
X146627067Y-82339172D01*
X146627067Y-82339172D02*
X146674686Y-82529648D01*
X146674686Y-82529648D02*
X146722305Y-82624886D01*
X146722305Y-82624886D02*
X146769924Y-82672506D01*
X146769924Y-82672506D02*
X146865162Y-82720125D01*
X146865162Y-82720125D02*
X146960400Y-82720125D01*
X146960400Y-82720125D02*
X147055638Y-82672506D01*
X147055638Y-82672506D02*
X147103257Y-82624886D01*
X147103257Y-82624886D02*
X147150876Y-82529648D01*
X147150876Y-82529648D02*
X147198495Y-82339172D01*
X147198495Y-82339172D02*
X147198495Y-82101077D01*
X147198495Y-82101077D02*
X147150876Y-81910601D01*
X147150876Y-81910601D02*
X147103257Y-81815363D01*
X147103257Y-81815363D02*
X147055638Y-81767744D01*
X147055638Y-81767744D02*
X146960400Y-81720125D01*
X146246114Y-81815363D02*
X146198495Y-81767744D01*
X146198495Y-81767744D02*
X146103257Y-81720125D01*
X146103257Y-81720125D02*
X145865162Y-81720125D01*
X145865162Y-81720125D02*
X145769924Y-81767744D01*
X145769924Y-81767744D02*
X145722305Y-81815363D01*
X145722305Y-81815363D02*
X145674686Y-81910601D01*
X145674686Y-81910601D02*
X145674686Y-82005839D01*
X145674686Y-82005839D02*
X145722305Y-82148696D01*
X145722305Y-82148696D02*
X146293733Y-82720125D01*
X146293733Y-82720125D02*
X145674686Y-82720125D01*
X144817543Y-81720125D02*
X145008019Y-81720125D01*
X145008019Y-81720125D02*
X145103257Y-81767744D01*
X145103257Y-81767744D02*
X145150876Y-81815363D01*
X145150876Y-81815363D02*
X145246114Y-81958220D01*
X145246114Y-81958220D02*
X145293733Y-82148696D01*
X145293733Y-82148696D02*
X145293733Y-82529648D01*
X145293733Y-82529648D02*
X145246114Y-82624886D01*
X145246114Y-82624886D02*
X145198495Y-82672506D01*
X145198495Y-82672506D02*
X145103257Y-82720125D01*
X145103257Y-82720125D02*
X144912781Y-82720125D01*
X144912781Y-82720125D02*
X144817543Y-82672506D01*
X144817543Y-82672506D02*
X144769924Y-82624886D01*
X144769924Y-82624886D02*
X144722305Y-82529648D01*
X144722305Y-82529648D02*
X144722305Y-82291553D01*
X144722305Y-82291553D02*
X144769924Y-82196315D01*
X144769924Y-82196315D02*
X144817543Y-82148696D01*
X144817543Y-82148696D02*
X144912781Y-82101077D01*
X144912781Y-82101077D02*
X145103257Y-82101077D01*
X145103257Y-82101077D02*
X145198495Y-82148696D01*
X145198495Y-82148696D02*
X145246114Y-82196315D01*
X145246114Y-82196315D02*
X145293733Y-82291553D01*
X162246115Y-84330069D02*
X162246115Y-83330069D01*
X162246115Y-83330069D02*
X161912782Y-84044354D01*
X161912782Y-84044354D02*
X161579449Y-83330069D01*
X161579449Y-83330069D02*
X161579449Y-84330069D01*
X161150877Y-84044354D02*
X160674687Y-84044354D01*
X161246115Y-84330069D02*
X160912782Y-83330069D01*
X160912782Y-83330069D02*
X160579449Y-84330069D01*
X160246115Y-84330069D02*
X160246115Y-83330069D01*
X159769925Y-84330069D02*
X159769925Y-83330069D01*
X159769925Y-83330069D02*
X159198497Y-84330069D01*
X159198497Y-84330069D02*
X159198497Y-83330069D01*
X157627068Y-83806259D02*
X157484211Y-83853878D01*
X157484211Y-83853878D02*
X157436592Y-83901497D01*
X157436592Y-83901497D02*
X157388973Y-83996735D01*
X157388973Y-83996735D02*
X157388973Y-84139592D01*
X157388973Y-84139592D02*
X157436592Y-84234830D01*
X157436592Y-84234830D02*
X157484211Y-84282450D01*
X157484211Y-84282450D02*
X157579449Y-84330069D01*
X157579449Y-84330069D02*
X157960401Y-84330069D01*
X157960401Y-84330069D02*
X157960401Y-83330069D01*
X157960401Y-83330069D02*
X157627068Y-83330069D01*
X157627068Y-83330069D02*
X157531830Y-83377688D01*
X157531830Y-83377688D02*
X157484211Y-83425307D01*
X157484211Y-83425307D02*
X157436592Y-83520545D01*
X157436592Y-83520545D02*
X157436592Y-83615783D01*
X157436592Y-83615783D02*
X157484211Y-83711021D01*
X157484211Y-83711021D02*
X157531830Y-83758640D01*
X157531830Y-83758640D02*
X157627068Y-83806259D01*
X157627068Y-83806259D02*
X157960401Y-83806259D01*
X156769925Y-83330069D02*
X156579449Y-83330069D01*
X156579449Y-83330069D02*
X156484211Y-83377688D01*
X156484211Y-83377688D02*
X156388973Y-83472926D01*
X156388973Y-83472926D02*
X156341354Y-83663402D01*
X156341354Y-83663402D02*
X156341354Y-83996735D01*
X156341354Y-83996735D02*
X156388973Y-84187211D01*
X156388973Y-84187211D02*
X156484211Y-84282450D01*
X156484211Y-84282450D02*
X156579449Y-84330069D01*
X156579449Y-84330069D02*
X156769925Y-84330069D01*
X156769925Y-84330069D02*
X156865163Y-84282450D01*
X156865163Y-84282450D02*
X156960401Y-84187211D01*
X156960401Y-84187211D02*
X157008020Y-83996735D01*
X157008020Y-83996735D02*
X157008020Y-83663402D01*
X157008020Y-83663402D02*
X156960401Y-83472926D01*
X156960401Y-83472926D02*
X156865163Y-83377688D01*
X156865163Y-83377688D02*
X156769925Y-83330069D01*
X155960401Y-84044354D02*
X155484211Y-84044354D01*
X156055639Y-84330069D02*
X155722306Y-83330069D01*
X155722306Y-83330069D02*
X155388973Y-84330069D01*
X154484211Y-84330069D02*
X154817544Y-83853878D01*
X155055639Y-84330069D02*
X155055639Y-83330069D01*
X155055639Y-83330069D02*
X154674687Y-83330069D01*
X154674687Y-83330069D02*
X154579449Y-83377688D01*
X154579449Y-83377688D02*
X154531830Y-83425307D01*
X154531830Y-83425307D02*
X154484211Y-83520545D01*
X154484211Y-83520545D02*
X154484211Y-83663402D01*
X154484211Y-83663402D02*
X154531830Y-83758640D01*
X154531830Y-83758640D02*
X154579449Y-83806259D01*
X154579449Y-83806259D02*
X154674687Y-83853878D01*
X154674687Y-83853878D02*
X155055639Y-83853878D01*
X154055639Y-84330069D02*
X154055639Y-83330069D01*
X154055639Y-83330069D02*
X153817544Y-83330069D01*
X153817544Y-83330069D02*
X153674687Y-83377688D01*
X153674687Y-83377688D02*
X153579449Y-83472926D01*
X153579449Y-83472926D02*
X153531830Y-83568164D01*
X153531830Y-83568164D02*
X153484211Y-83758640D01*
X153484211Y-83758640D02*
X153484211Y-83901497D01*
X153484211Y-83901497D02*
X153531830Y-84091973D01*
X153531830Y-84091973D02*
X153579449Y-84187211D01*
X153579449Y-84187211D02*
X153674687Y-84282450D01*
X153674687Y-84282450D02*
X153817544Y-84330069D01*
X153817544Y-84330069D02*
X154055639Y-84330069D01*
X161674687Y-85940013D02*
X162008020Y-85463822D01*
X162246115Y-85940013D02*
X162246115Y-84940013D01*
X162246115Y-84940013D02*
X161865163Y-84940013D01*
X161865163Y-84940013D02*
X161769925Y-84987632D01*
X161769925Y-84987632D02*
X161722306Y-85035251D01*
X161722306Y-85035251D02*
X161674687Y-85130489D01*
X161674687Y-85130489D02*
X161674687Y-85273346D01*
X161674687Y-85273346D02*
X161722306Y-85368584D01*
X161722306Y-85368584D02*
X161769925Y-85416203D01*
X161769925Y-85416203D02*
X161865163Y-85463822D01*
X161865163Y-85463822D02*
X162246115Y-85463822D01*
X161246115Y-85416203D02*
X160912782Y-85416203D01*
X160769925Y-85940013D02*
X161246115Y-85940013D01*
X161246115Y-85940013D02*
X161246115Y-84940013D01*
X161246115Y-84940013D02*
X160769925Y-84940013D01*
X160484210Y-84940013D02*
X160150877Y-85940013D01*
X160150877Y-85940013D02*
X159817544Y-84940013D01*
X159484210Y-85844774D02*
X159436591Y-85892394D01*
X159436591Y-85892394D02*
X159484210Y-85940013D01*
X159484210Y-85940013D02*
X159531829Y-85892394D01*
X159531829Y-85892394D02*
X159484210Y-85844774D01*
X159484210Y-85844774D02*
X159484210Y-85940013D01*
X159484210Y-85320965D02*
X159436591Y-85368584D01*
X159436591Y-85368584D02*
X159484210Y-85416203D01*
X159484210Y-85416203D02*
X159531829Y-85368584D01*
X159531829Y-85368584D02*
X159484210Y-85320965D01*
X159484210Y-85320965D02*
X159484210Y-85416203D01*
X158341353Y-84940013D02*
X157674687Y-85940013D01*
X157674687Y-84940013D02*
X158341353Y-85940013D01*
X156769925Y-85940013D02*
X157341353Y-85940013D01*
X157055639Y-85940013D02*
X157055639Y-84940013D01*
X157055639Y-84940013D02*
X157150877Y-85082870D01*
X157150877Y-85082870D02*
X157246115Y-85178108D01*
X157246115Y-85178108D02*
X157341353Y-85225727D01*
D12*
%TO.C,G\u002A\u002A\u002A*%
G36*
X157498744Y-103384030D02*
G01*
X157506367Y-103390908D01*
X157614893Y-103470214D01*
X157718489Y-103467254D01*
X157885524Y-103381597D01*
X157916672Y-103364080D01*
X158073041Y-103288400D01*
X158150923Y-103271888D01*
X158152883Y-103274902D01*
X158147768Y-103371887D01*
X158106425Y-103548508D01*
X158074263Y-103689102D01*
X158098431Y-103815527D01*
X158224629Y-103922400D01*
X158292456Y-103969546D01*
X158400085Y-104083683D01*
X158357596Y-104158187D01*
X158163639Y-104199193D01*
X158056430Y-104215612D01*
X157920494Y-104294219D01*
X157840711Y-104476829D01*
X157803597Y-104590132D01*
X157728299Y-104712407D01*
X157658045Y-104679422D01*
X157595147Y-104491043D01*
X157560224Y-104358469D01*
X157497145Y-104264362D01*
X157368443Y-104204407D01*
X157130525Y-104146256D01*
X156898489Y-104094847D01*
X157116920Y-103964442D01*
X157252296Y-103866381D01*
X157305813Y-103745118D01*
X157289600Y-103541859D01*
X157274724Y-103430972D01*
X157280444Y-103283503D01*
X157350919Y-103271024D01*
X157498744Y-103384030D01*
G37*
G36*
X156478249Y-99334510D02*
G01*
X156493751Y-99350197D01*
X156507785Y-99374238D01*
X156502929Y-99408060D01*
X156469334Y-99460934D01*
X156397151Y-99542130D01*
X156276530Y-99660920D01*
X156097624Y-99826575D01*
X155850583Y-100048366D01*
X155525558Y-100335563D01*
X155112700Y-100697438D01*
X154602159Y-101143262D01*
X153984088Y-101682305D01*
X153642129Y-101979104D01*
X153192105Y-102365192D01*
X152786683Y-102707861D01*
X152440306Y-102995170D01*
X152167419Y-103215175D01*
X151982464Y-103355936D01*
X151899886Y-103405510D01*
X151851727Y-103393722D01*
X151791702Y-103293471D01*
X151825748Y-103247335D01*
X151962670Y-103107815D01*
X152189965Y-102891019D01*
X152492056Y-102610776D01*
X152853365Y-102280911D01*
X153258315Y-101915251D01*
X153691329Y-101527623D01*
X154136829Y-101131853D01*
X154579239Y-100741768D01*
X155002982Y-100371195D01*
X155392480Y-100033960D01*
X155732156Y-99743890D01*
X156006432Y-99514812D01*
X156199733Y-99360552D01*
X156296479Y-99294936D01*
X156343862Y-99285767D01*
X156478249Y-99334510D01*
G37*
G36*
X162284742Y-103133187D02*
G01*
X162368579Y-103230203D01*
X162357432Y-103290373D01*
X162238686Y-103327596D01*
X162141905Y-103306162D01*
X162076365Y-103205012D01*
X162084233Y-103164517D01*
X162166928Y-103109306D01*
X162284742Y-103133187D01*
G37*
G36*
X165130562Y-102406201D02*
G01*
X165192929Y-102509498D01*
X165179354Y-102564001D01*
X165076058Y-102626369D01*
X165021555Y-102612794D01*
X164959187Y-102509498D01*
X164972762Y-102454994D01*
X165076058Y-102392626D01*
X165130562Y-102406201D01*
G37*
G36*
X162177670Y-91950811D02*
G01*
X162504893Y-92149692D01*
X162605557Y-92210518D01*
X162914065Y-92397462D01*
X163299056Y-92631253D01*
X163721180Y-92887984D01*
X164141089Y-93143750D01*
X164550906Y-93393583D01*
X165231886Y-93808722D01*
X165233326Y-93998341D01*
X165235174Y-94241599D01*
X165252378Y-96506664D01*
X165254893Y-96972997D01*
X165255946Y-97168364D01*
X165255198Y-97911471D01*
X165248244Y-98503126D01*
X165235108Y-98942265D01*
X165215813Y-99227823D01*
X165190381Y-99358738D01*
X165171686Y-99379840D01*
X165030415Y-99479344D01*
X164765560Y-99637004D01*
X164389387Y-99846098D01*
X163914159Y-100099907D01*
X163352140Y-100391710D01*
X162715595Y-100714789D01*
X162265897Y-100940084D01*
X161733176Y-101205220D01*
X161261590Y-101438010D01*
X161256588Y-101440479D01*
X160852715Y-101637769D01*
X160538144Y-101789001D01*
X160329458Y-101886083D01*
X160243241Y-101920925D01*
X160232992Y-101921059D01*
X160183616Y-101911123D01*
X160112353Y-101877353D01*
X160006891Y-101810360D01*
X159854916Y-101700756D01*
X159644116Y-101539154D01*
X159362176Y-101316167D01*
X158996785Y-101022406D01*
X158535629Y-100648484D01*
X157966396Y-100185012D01*
X156154893Y-98708456D01*
X156154893Y-97289252D01*
X156388635Y-97289252D01*
X156388810Y-97475405D01*
X156391565Y-97789212D01*
X156400161Y-97980859D01*
X156417749Y-98073603D01*
X156447485Y-98090701D01*
X156492520Y-98055408D01*
X156510706Y-98010171D01*
X156532251Y-97840688D01*
X156543424Y-97588072D01*
X156544008Y-97469157D01*
X156703256Y-97469157D01*
X156709966Y-97773276D01*
X156740764Y-98082094D01*
X156807936Y-98353117D01*
X156923858Y-98652749D01*
X156951374Y-98715953D01*
X157041712Y-98903367D01*
X157143633Y-99066113D01*
X157279235Y-99228497D01*
X157470613Y-99414825D01*
X157739864Y-99649405D01*
X158109083Y-99956542D01*
X158323848Y-100131900D01*
X158633461Y-100378567D01*
X158889806Y-100575319D01*
X159070856Y-100705398D01*
X159154586Y-100752042D01*
X159271731Y-100716921D01*
X159446764Y-100633951D01*
X159469971Y-100621262D01*
X159561787Y-100560913D01*
X159618163Y-100481421D01*
X159647735Y-100348617D01*
X159659144Y-100128330D01*
X159661028Y-99786388D01*
X159659825Y-99617722D01*
X159650881Y-99304086D01*
X159636345Y-99081277D01*
X159972684Y-99081277D01*
X159972996Y-99597912D01*
X159973591Y-99786388D01*
X159974836Y-100180340D01*
X159979051Y-100634144D01*
X159986454Y-100975034D01*
X159997858Y-101218718D01*
X160014076Y-101380904D01*
X160035922Y-101477303D01*
X160064209Y-101523622D01*
X160099750Y-101535571D01*
X160163652Y-101521920D01*
X160198275Y-101438010D01*
X160178521Y-101243393D01*
X160178150Y-101241085D01*
X160165404Y-101083081D01*
X160153876Y-100793441D01*
X160144037Y-100395693D01*
X160136359Y-99913368D01*
X160131313Y-99369993D01*
X160130217Y-99042320D01*
X160440169Y-99042320D01*
X160440529Y-99339635D01*
X160442756Y-99819729D01*
X160446746Y-100230998D01*
X160452183Y-100551690D01*
X160458753Y-100760056D01*
X160466140Y-100834344D01*
X160502609Y-100818039D01*
X160536108Y-100747853D01*
X160560845Y-100606454D01*
X160575780Y-100406757D01*
X160767602Y-100406757D01*
X160882870Y-100687467D01*
X161133463Y-100898438D01*
X161216675Y-100943681D01*
X161398749Y-101031239D01*
X161502618Y-101064220D01*
X161541263Y-101053942D01*
X161699901Y-100984557D01*
X161929733Y-100869219D01*
X162188567Y-100730803D01*
X162434208Y-100592181D01*
X162624464Y-100476228D01*
X162717140Y-100405817D01*
X162731231Y-100355365D01*
X162749528Y-100173150D01*
X162763262Y-99896060D01*
X162771588Y-99581186D01*
X162945224Y-99581186D01*
X162947947Y-99919005D01*
X162961869Y-100136385D01*
X162988332Y-100252279D01*
X163028674Y-100285643D01*
X163043897Y-100283203D01*
X163180714Y-100230013D01*
X163402901Y-100121831D01*
X163670487Y-99977827D01*
X163958815Y-99805749D01*
X164155516Y-99652106D01*
X164298674Y-99477296D01*
X164432843Y-99238088D01*
X164525730Y-99044751D01*
X164592998Y-98858411D01*
X164627648Y-98660473D01*
X164637593Y-98402945D01*
X164630746Y-98037834D01*
X164608574Y-97272807D01*
X163790475Y-97674891D01*
X162972377Y-98076975D01*
X162950759Y-99182960D01*
X162950516Y-99200431D01*
X162945224Y-99581186D01*
X162771588Y-99581186D01*
X162772151Y-99559889D01*
X162775915Y-99200431D01*
X162774272Y-98853484D01*
X162766942Y-98554842D01*
X162753644Y-98340300D01*
X162734096Y-98245654D01*
X162727464Y-98243554D01*
X162618876Y-98271468D01*
X162403192Y-98353906D01*
X162107821Y-98479821D01*
X161760170Y-98638168D01*
X161008568Y-98990377D01*
X160829739Y-99074178D01*
X160823949Y-99467298D01*
X160820562Y-99592774D01*
X160804447Y-99860538D01*
X160781249Y-100055203D01*
X160767602Y-100406757D01*
X160575780Y-100406757D01*
X160578011Y-100376926D01*
X160588798Y-100042349D01*
X160594396Y-99585805D01*
X160595997Y-98990377D01*
X160593001Y-98413198D01*
X160584949Y-97997489D01*
X160829739Y-97997489D01*
X160833859Y-98345599D01*
X160849970Y-98614057D01*
X160880334Y-98760849D01*
X160927132Y-98804032D01*
X160927618Y-98804006D01*
X161041322Y-98767295D01*
X161255739Y-98674759D01*
X161536241Y-98543635D01*
X161848197Y-98391163D01*
X162156977Y-98234582D01*
X162427951Y-98091129D01*
X162626490Y-97978044D01*
X162717963Y-97912565D01*
X162718418Y-97911924D01*
X162742030Y-97804841D01*
X162759252Y-97584371D01*
X162770199Y-97284155D01*
X162774985Y-96937833D01*
X162773722Y-96579044D01*
X162766525Y-96241427D01*
X162753507Y-95958624D01*
X162734782Y-95764272D01*
X162710463Y-95692013D01*
X162677509Y-95700227D01*
X162524113Y-95759677D01*
X162283128Y-95864022D01*
X161989758Y-95998301D01*
X161743152Y-96116576D01*
X161506064Y-96247061D01*
X161343444Y-96373588D01*
X161215631Y-96528839D01*
X161082960Y-96745495D01*
X161051056Y-96801358D01*
X160947243Y-96997515D01*
X160882256Y-97170450D01*
X160847045Y-97364919D01*
X160832557Y-97625680D01*
X160829739Y-97997489D01*
X160584949Y-97997489D01*
X160583372Y-97916102D01*
X160567444Y-97551398D01*
X160545564Y-97326868D01*
X160518083Y-97250295D01*
X160518042Y-97250295D01*
X160490874Y-97327129D01*
X160469178Y-97552221D01*
X160453278Y-97918100D01*
X160443500Y-98417291D01*
X160440169Y-99042320D01*
X160130217Y-99042320D01*
X160129370Y-98789099D01*
X160128652Y-98452902D01*
X160123128Y-97811078D01*
X160112349Y-97301759D01*
X160096526Y-96930760D01*
X160075872Y-96703896D01*
X160050598Y-96626982D01*
X160031312Y-96675062D01*
X160010614Y-96871637D01*
X159994249Y-97215366D01*
X159987247Y-97501901D01*
X159982371Y-97701428D01*
X159975131Y-98325005D01*
X159972684Y-99081277D01*
X159636345Y-99081277D01*
X159635114Y-99062400D01*
X159614799Y-98934593D01*
X159614643Y-98934195D01*
X159536696Y-98841069D01*
X159360271Y-98677652D01*
X159111415Y-98466874D01*
X158816179Y-98231661D01*
X158570523Y-98041340D01*
X158171432Y-97731700D01*
X157780659Y-97428066D01*
X157455691Y-97175084D01*
X157283182Y-97044681D01*
X157042323Y-96877705D01*
X156862680Y-96772086D01*
X156773943Y-96746488D01*
X156760037Y-96767401D01*
X156730050Y-96912477D01*
X156709864Y-97159262D01*
X156707031Y-97292127D01*
X156703256Y-97469157D01*
X156544008Y-97469157D01*
X156544877Y-97292127D01*
X156537264Y-96992658D01*
X156521237Y-96729470D01*
X156497447Y-96542367D01*
X156466549Y-96471154D01*
X156446287Y-96493106D01*
X156415599Y-96642361D01*
X156395711Y-96914782D01*
X156388635Y-97289252D01*
X156154893Y-97289252D01*
X156154893Y-96370681D01*
X156697458Y-96370681D01*
X158042893Y-97419961D01*
X158361897Y-97668681D01*
X158763745Y-97981138D01*
X159066069Y-98213825D01*
X159283051Y-98376516D01*
X159428873Y-98478982D01*
X159517714Y-98530995D01*
X159563757Y-98542328D01*
X159581182Y-98522752D01*
X159584171Y-98482041D01*
X159584713Y-98459383D01*
X159591208Y-98299128D01*
X159603375Y-98040539D01*
X159619179Y-97727470D01*
X159629430Y-97501901D01*
X159628342Y-97237701D01*
X159596117Y-97031931D01*
X159521258Y-96825360D01*
X159392263Y-96558759D01*
X159388919Y-96552157D01*
X159260561Y-96321138D01*
X160434455Y-96321138D01*
X160519453Y-96320468D01*
X160718930Y-96259735D01*
X161020621Y-96143248D01*
X161412260Y-95975314D01*
X161881580Y-95760243D01*
X162070315Y-95671421D01*
X162285016Y-95570355D01*
X162933420Y-95570355D01*
X162933420Y-96683025D01*
X162934659Y-96937833D01*
X162935051Y-97018524D01*
X162943907Y-97383983D01*
X162961808Y-97622907D01*
X162990271Y-97752539D01*
X163030813Y-97790122D01*
X163080267Y-97776783D01*
X163253858Y-97706925D01*
X163509835Y-97591139D01*
X163812733Y-97445074D01*
X163996563Y-97354241D01*
X164269406Y-97220788D01*
X164470689Y-97124088D01*
X164566475Y-97080555D01*
X164591671Y-97028393D01*
X164593101Y-97021151D01*
X164881273Y-97021151D01*
X164884069Y-97569825D01*
X164893597Y-98065730D01*
X164908359Y-98402945D01*
X164909536Y-98429821D01*
X164931520Y-98654124D01*
X164959187Y-98730663D01*
X164985501Y-98660453D01*
X165007566Y-98441992D01*
X165023747Y-98082812D01*
X165033706Y-97590588D01*
X165037101Y-96972997D01*
X165034446Y-96400052D01*
X165025216Y-95892739D01*
X165009506Y-95532227D01*
X164987451Y-95321486D01*
X164959187Y-95263485D01*
X164933095Y-95353065D01*
X164928251Y-95404859D01*
X164911263Y-95586493D01*
X164894975Y-95950737D01*
X164884792Y-96433167D01*
X164881273Y-97021151D01*
X164593101Y-97021151D01*
X164627320Y-96847895D01*
X164661840Y-96570725D01*
X164690379Y-96230185D01*
X164745069Y-95404859D01*
X164521789Y-95197823D01*
X164482019Y-95162280D01*
X164317429Y-95040124D01*
X164201610Y-94990786D01*
X164179755Y-94994229D01*
X164033277Y-95046009D01*
X163799930Y-95147025D01*
X163519065Y-95280571D01*
X162933420Y-95570355D01*
X162285016Y-95570355D01*
X162536826Y-95451821D01*
X162995667Y-95235767D01*
X163402394Y-95044189D01*
X163712561Y-94898015D01*
X163839664Y-94838431D01*
X164170057Y-94686387D01*
X164463024Y-94555221D01*
X164667009Y-94468154D01*
X164790510Y-94410816D01*
X164927770Y-94315814D01*
X164963250Y-94241599D01*
X164877670Y-94211645D01*
X164855757Y-94215528D01*
X164712130Y-94266139D01*
X164479425Y-94363030D01*
X164195922Y-94490542D01*
X163600514Y-94767506D01*
X163355857Y-94881312D01*
X162580707Y-95242961D01*
X161936468Y-95544881D01*
X161417543Y-95789727D01*
X161018333Y-95980153D01*
X160733241Y-96118814D01*
X160686199Y-96142672D01*
X160556670Y-96208365D01*
X160483021Y-96251461D01*
X160476203Y-96257438D01*
X160434455Y-96321138D01*
X159260561Y-96321138D01*
X159233223Y-96271936D01*
X159075072Y-96029797D01*
X158948207Y-95877506D01*
X158824408Y-95772199D01*
X158583084Y-95583094D01*
X158289509Y-95364979D01*
X157968974Y-95135330D01*
X157646774Y-94911622D01*
X157348198Y-94711333D01*
X157098539Y-94551937D01*
X156923090Y-94450911D01*
X156847143Y-94425731D01*
X156846776Y-94426134D01*
X156821352Y-94524875D01*
X156793567Y-94746341D01*
X156766758Y-95058047D01*
X156747132Y-95380356D01*
X156744261Y-95427513D01*
X156697458Y-96370681D01*
X156154893Y-96370681D01*
X156154893Y-96124329D01*
X156154893Y-96107999D01*
X156156434Y-95380356D01*
X156388635Y-95380356D01*
X156391180Y-95626625D01*
X156405667Y-95952677D01*
X156431394Y-96162909D01*
X156466549Y-96237412D01*
X156488937Y-96209416D01*
X156518578Y-96050056D01*
X156537690Y-95767065D01*
X156544463Y-95380356D01*
X156541918Y-95134088D01*
X156527431Y-94808036D01*
X156501704Y-94597804D01*
X156466549Y-94523301D01*
X156444161Y-94551297D01*
X156414520Y-94710657D01*
X156395408Y-94993647D01*
X156388635Y-95380356D01*
X156156434Y-95380356D01*
X156156489Y-95354488D01*
X156161456Y-94744264D01*
X156170235Y-94265057D01*
X156183267Y-93904596D01*
X156199372Y-93673823D01*
X156559666Y-93673823D01*
X156561260Y-93724682D01*
X156607609Y-93768811D01*
X156765351Y-93894520D01*
X157018357Y-94087460D01*
X157349529Y-94334770D01*
X157741769Y-94623584D01*
X158177978Y-94941038D01*
X158537995Y-95201787D01*
X158948149Y-95499348D01*
X159304348Y-95758317D01*
X159588506Y-95965524D01*
X159782537Y-96107798D01*
X159868355Y-96171969D01*
X159915328Y-96199826D01*
X160004736Y-96170671D01*
X160005214Y-96142672D01*
X159967510Y-96088357D01*
X159878283Y-96002764D01*
X159726679Y-95877561D01*
X159501843Y-95704419D01*
X159192923Y-95475007D01*
X158789065Y-95180997D01*
X158279414Y-94814057D01*
X157653117Y-94365859D01*
X157568762Y-94305663D01*
X157181657Y-94031972D01*
X156902098Y-93840694D01*
X156715182Y-93723078D01*
X156606005Y-93670371D01*
X156559666Y-93673823D01*
X156199372Y-93673823D01*
X156200777Y-93653696D01*
X157304988Y-93653696D01*
X157323498Y-93699348D01*
X157451983Y-93825707D01*
X157684874Y-94017647D01*
X158007942Y-94263570D01*
X158406959Y-94551880D01*
X158768887Y-94804010D01*
X159108989Y-95033322D01*
X159388532Y-95213785D01*
X159585598Y-95331265D01*
X159678267Y-95371630D01*
X159691140Y-95369346D01*
X159721974Y-95358531D01*
X160492720Y-95358531D01*
X160518028Y-95419248D01*
X160524103Y-95426401D01*
X160627505Y-95503090D01*
X160772011Y-95521346D01*
X160981085Y-95476305D01*
X161278191Y-95363098D01*
X161686794Y-95176861D01*
X161777827Y-95133509D01*
X162073592Y-94989000D01*
X162251764Y-94890065D01*
X162331844Y-94821352D01*
X162333335Y-94767506D01*
X162275737Y-94713172D01*
X162192548Y-94656673D01*
X162094092Y-94619426D01*
X161972622Y-94623934D01*
X161798751Y-94676575D01*
X161543092Y-94783726D01*
X161176256Y-94951763D01*
X160897971Y-95083289D01*
X160662445Y-95204931D01*
X160534111Y-95291885D01*
X160492720Y-95358531D01*
X159721974Y-95358531D01*
X159824315Y-95322635D01*
X160053603Y-95227025D01*
X160349158Y-95096466D01*
X160681131Y-94944904D01*
X161019675Y-94786288D01*
X161334944Y-94634564D01*
X161597089Y-94503680D01*
X161674355Y-94462241D01*
X162355792Y-94462241D01*
X162378251Y-94510276D01*
X162465936Y-94564846D01*
X162545375Y-94608206D01*
X162652125Y-94650707D01*
X162763873Y-94654317D01*
X162914638Y-94612212D01*
X163138436Y-94517567D01*
X163469289Y-94363556D01*
X163674332Y-94265814D01*
X163901546Y-94148050D01*
X164020413Y-94064505D01*
X164052420Y-93998341D01*
X164019052Y-93932721D01*
X163928267Y-93863024D01*
X163791546Y-93844976D01*
X163588568Y-93887309D01*
X163295947Y-93994999D01*
X162890294Y-94173027D01*
X162868722Y-94182891D01*
X162582133Y-94315994D01*
X162498699Y-94360225D01*
X162417454Y-94403296D01*
X162355792Y-94462241D01*
X161674355Y-94462241D01*
X161776265Y-94407585D01*
X161842623Y-94360225D01*
X161838274Y-94353042D01*
X161745946Y-94278868D01*
X161552386Y-94143191D01*
X161282522Y-93962195D01*
X160961278Y-93752063D01*
X160613581Y-93528977D01*
X160264356Y-93309121D01*
X159938530Y-93108678D01*
X159661028Y-92943831D01*
X159310414Y-92741138D01*
X158342555Y-93162564D01*
X158254493Y-93201069D01*
X157902472Y-93358363D01*
X157607761Y-93495282D01*
X157399040Y-93598252D01*
X157304988Y-93653696D01*
X156200777Y-93653696D01*
X156200992Y-93650608D01*
X156223851Y-93490822D01*
X156252285Y-93412967D01*
X156266797Y-93397316D01*
X156409345Y-93300595D01*
X156592187Y-93206106D01*
X157367100Y-93206106D01*
X157385890Y-93234456D01*
X157422605Y-93259058D01*
X157492929Y-93253654D01*
X157624374Y-93210646D01*
X157844447Y-93122436D01*
X158180659Y-92981429D01*
X158429623Y-92876477D01*
X158674632Y-92771209D01*
X158816186Y-92704162D01*
X158837573Y-92689525D01*
X159628684Y-92689525D01*
X159651845Y-92750347D01*
X159750055Y-92813476D01*
X159885890Y-92891993D01*
X160120056Y-93034399D01*
X160419660Y-93220453D01*
X160751825Y-93429923D01*
X161077192Y-93635973D01*
X161401553Y-93840059D01*
X161669125Y-94007055D01*
X161842623Y-94113593D01*
X162115322Y-94277452D01*
X163036963Y-93868862D01*
X163097192Y-93842020D01*
X163434128Y-93686340D01*
X163708262Y-93550505D01*
X163892764Y-93448319D01*
X163960809Y-93393583D01*
X163919036Y-93350121D01*
X163763170Y-93236226D01*
X163512329Y-93069111D01*
X163188151Y-92863111D01*
X162812271Y-92632563D01*
X162453997Y-92417353D01*
X162082270Y-92205084D01*
X161787658Y-92065479D01*
X161538173Y-91994358D01*
X161301829Y-91987543D01*
X161046638Y-92040856D01*
X160740613Y-92150118D01*
X160351766Y-92311152D01*
X160166707Y-92389656D01*
X159870394Y-92522304D01*
X159696293Y-92617885D01*
X159683291Y-92631662D01*
X159628684Y-92689525D01*
X158837573Y-92689525D01*
X158877691Y-92662068D01*
X158882551Y-92631662D01*
X158854173Y-92599678D01*
X158793074Y-92593690D01*
X158622807Y-92635673D01*
X158393181Y-92723129D01*
X158243130Y-92786953D01*
X157926420Y-92915187D01*
X157654680Y-93017901D01*
X157555117Y-93057437D01*
X157406188Y-93141187D01*
X157367100Y-93206106D01*
X156592187Y-93206106D01*
X156646040Y-93178276D01*
X156934034Y-93052987D01*
X157163997Y-92959794D01*
X157524907Y-92810886D01*
X157961706Y-92628836D01*
X158438861Y-92428456D01*
X158509511Y-92398569D01*
X159282512Y-92398569D01*
X159341168Y-92416765D01*
X159500015Y-92387826D01*
X159732394Y-92317295D01*
X160011641Y-92210717D01*
X160171001Y-92143743D01*
X160385641Y-92048941D01*
X160494249Y-91988026D01*
X160522251Y-91944822D01*
X160495072Y-91903153D01*
X160481011Y-91898966D01*
X160358288Y-91922187D01*
X160149888Y-91988411D01*
X159898551Y-92081256D01*
X159647015Y-92184341D01*
X159438022Y-92281285D01*
X159314310Y-92355708D01*
X159282512Y-92398569D01*
X158509511Y-92398569D01*
X158920844Y-92224563D01*
X159373002Y-92033146D01*
X159819542Y-91845312D01*
X160215747Y-91679835D01*
X160530622Y-91549658D01*
X160733176Y-91467724D01*
X161143055Y-91306562D01*
X161551274Y-91563584D01*
X161557969Y-91567798D01*
X161838029Y-91742095D01*
X162167924Y-91944822D01*
X162177670Y-91950811D01*
G37*
G36*
X156737076Y-101570288D02*
G01*
X156780922Y-101672247D01*
X156724640Y-101796908D01*
X156671274Y-101828334D01*
X156559443Y-101801949D01*
X156505506Y-101685974D01*
X156525946Y-101624649D01*
X156641856Y-101550404D01*
X156737076Y-101570288D01*
G37*
G36*
X167340512Y-99710346D02*
G01*
X167388828Y-99872038D01*
X167392401Y-99898602D01*
X167443035Y-100046639D01*
X167566722Y-100154165D01*
X167803052Y-100258075D01*
X167880108Y-100289340D01*
X167894358Y-100320746D01*
X167764095Y-100349076D01*
X167612686Y-100387519D01*
X167432069Y-100515667D01*
X167374525Y-100727013D01*
X167356250Y-100845884D01*
X167296610Y-100912258D01*
X167247465Y-100871851D01*
X167218696Y-100733056D01*
X167203359Y-100613416D01*
X167089942Y-100434151D01*
X166891457Y-100366859D01*
X166815727Y-100354440D01*
X166751212Y-100288945D01*
X166773567Y-100246873D01*
X166891457Y-100211031D01*
X166998369Y-100193868D01*
X167158563Y-100066949D01*
X167218696Y-99844835D01*
X167224681Y-99764846D01*
X167273373Y-99672628D01*
X167340512Y-99710346D01*
G37*
G36*
X151622129Y-100270425D02*
G01*
X151698956Y-100386338D01*
X151685838Y-100483254D01*
X151557960Y-100522688D01*
X151444068Y-100496778D01*
X151416964Y-100386338D01*
X151447946Y-100314759D01*
X151557960Y-100249988D01*
X151622129Y-100270425D01*
G37*
G36*
X153929667Y-98211647D02*
G01*
X153984414Y-98250303D01*
X154002605Y-98377100D01*
X153959516Y-98452741D01*
X153857258Y-98487439D01*
X153766442Y-98376689D01*
X153747058Y-98303558D01*
X153786687Y-98201704D01*
X153929667Y-98211647D01*
G37*
G36*
X151916673Y-95828269D02*
G01*
X151961014Y-96042626D01*
X151974024Y-96123626D01*
X152053889Y-96265690D01*
X152239709Y-96350917D01*
X152351328Y-96389723D01*
X152474184Y-96465363D01*
X152465402Y-96525151D01*
X152317623Y-96550261D01*
X152284559Y-96550960D01*
X152092142Y-96593210D01*
X151975493Y-96724401D01*
X151902316Y-96977774D01*
X151842799Y-97289252D01*
X151771270Y-97016553D01*
X151763550Y-96987727D01*
X151665345Y-96725376D01*
X151537038Y-96588482D01*
X151353635Y-96549068D01*
X151253491Y-96540891D01*
X151174146Y-96493081D01*
X151226771Y-96425667D01*
X151403971Y-96365602D01*
X151529585Y-96334276D01*
X151627305Y-96270073D01*
X151690499Y-96137856D01*
X151750551Y-95895007D01*
X151788394Y-95781341D01*
X151853758Y-95737404D01*
X151916673Y-95828269D01*
G37*
G36*
X167172948Y-96808272D02*
G01*
X167219515Y-96916538D01*
X167168872Y-97040406D01*
X167120138Y-97065962D01*
X167028087Y-97022614D01*
X166984954Y-96895083D01*
X166998475Y-96842821D01*
X167101825Y-96782810D01*
X167172948Y-96808272D01*
G37*
G36*
X154007747Y-94877553D02*
G01*
X154083682Y-94972302D01*
X154080429Y-95084458D01*
X154055738Y-95109248D01*
X153929742Y-95146614D01*
X153837231Y-95092964D01*
X153825560Y-94975788D01*
X153904094Y-94868531D01*
X153907011Y-94866810D01*
X154007747Y-94877553D01*
G37*
G36*
X168050392Y-92837832D02*
G01*
X168105218Y-93040100D01*
X168206591Y-93322174D01*
X168406002Y-93518045D01*
X168677444Y-93588332D01*
X168827865Y-93609785D01*
X168845855Y-93661205D01*
X168745308Y-93722723D01*
X168540810Y-93774468D01*
X168489928Y-93783949D01*
X168251069Y-93890507D01*
X168117391Y-94095180D01*
X168075752Y-94416100D01*
X168055993Y-94535079D01*
X167997837Y-94562258D01*
X167997401Y-94561985D01*
X167942667Y-94456482D01*
X167919923Y-94271617D01*
X167858487Y-93996947D01*
X167689005Y-93811767D01*
X167435765Y-93744160D01*
X167287258Y-93722176D01*
X167257653Y-93666246D01*
X167327661Y-93617890D01*
X167490429Y-93588332D01*
X167705227Y-93532567D01*
X167863048Y-93356066D01*
X167919923Y-93080923D01*
X167938077Y-92876146D01*
X167988086Y-92784632D01*
X168050392Y-92837832D01*
G37*
G36*
X152908204Y-93132558D02*
G01*
X153009526Y-93223905D01*
X152999371Y-93354590D01*
X152900208Y-93429398D01*
X152782118Y-93402020D01*
X152726672Y-93276675D01*
X152747925Y-93185719D01*
X152838945Y-93120847D01*
X152908204Y-93132558D01*
G37*
G36*
X166796047Y-90075588D02*
G01*
X166775004Y-90187192D01*
X166748915Y-90218044D01*
X166618837Y-90345876D01*
X166397801Y-90551312D01*
X166103319Y-90818383D01*
X165752905Y-91131123D01*
X165364072Y-91473565D01*
X165149342Y-91660233D01*
X164775626Y-91978949D01*
X164446130Y-92252174D01*
X164178877Y-92465354D01*
X163991887Y-92603935D01*
X163903182Y-92653363D01*
X163847330Y-92647832D01*
X163798640Y-92602253D01*
X163834908Y-92503405D01*
X163963589Y-92342613D01*
X164192138Y-92111200D01*
X164528012Y-91800491D01*
X164978666Y-91401809D01*
X165025332Y-91361075D01*
X165399471Y-91034098D01*
X165743498Y-90732764D01*
X166035569Y-90476255D01*
X166253841Y-90283750D01*
X166376468Y-90174432D01*
X166409759Y-90146215D01*
X166573515Y-90053821D01*
X166715581Y-90030705D01*
X166796047Y-90075588D01*
G37*
G36*
X158065671Y-90862901D02*
G01*
X158137866Y-90955439D01*
X158091425Y-91069763D01*
X158064800Y-91096868D01*
X157958170Y-91123884D01*
X157888329Y-91044247D01*
X157898536Y-90896757D01*
X157900376Y-90892013D01*
X157962821Y-90809891D01*
X158065671Y-90862901D01*
G37*
G36*
X156084998Y-89274454D02*
G01*
X156168306Y-89447976D01*
X156330063Y-89570933D01*
X156505506Y-89623313D01*
X156328506Y-89709589D01*
X156204622Y-89810326D01*
X156101057Y-89996868D01*
X156050608Y-90197871D01*
X155981010Y-89989076D01*
X155894853Y-89843417D01*
X155702017Y-89707102D01*
X155492623Y-89633925D01*
X155698411Y-89579042D01*
X155866839Y-89483309D01*
X155959788Y-89277258D01*
X156015376Y-89030356D01*
X156084998Y-89274454D01*
G37*
G36*
X160038588Y-89542864D02*
G01*
X160126487Y-89607407D01*
X160076570Y-89718598D01*
X159997792Y-89764670D01*
X159874734Y-89751776D01*
X159816856Y-89653669D01*
X159845778Y-89585516D01*
X159972684Y-89536798D01*
X160038588Y-89542864D01*
G37*
G36*
X163245077Y-88352504D02*
G01*
X163257437Y-88441154D01*
X163373708Y-88611833D01*
X163572316Y-88679743D01*
X163642264Y-88685648D01*
X163709017Y-88736060D01*
X163650896Y-88816760D01*
X163478819Y-88901810D01*
X163441447Y-88915646D01*
X163287754Y-89018407D01*
X163245077Y-89182132D01*
X163225294Y-89314171D01*
X163167163Y-89380970D01*
X163115459Y-89330638D01*
X163089248Y-89182423D01*
X163088920Y-89164202D01*
X163032223Y-89000169D01*
X162854209Y-88885050D01*
X162813094Y-88866641D01*
X162686129Y-88775507D01*
X162705747Y-88706859D01*
X162870440Y-88679743D01*
X162983687Y-88631190D01*
X163061979Y-88446001D01*
X163089620Y-88344725D01*
X163156521Y-88229970D01*
X163218072Y-88227594D01*
X163245077Y-88352504D01*
G37*
%TD*%
M02*
