%TF.GenerationSoftware,KiCad,Pcbnew,9.0.2*%
%TF.CreationDate,2025-10-21T19:11:23-06:00*%
%TF.ProjectId,Main Processing Board V2,4d61696e-2050-4726-9f63-657373696e67,rev?*%
%TF.SameCoordinates,Original*%
%TF.FileFunction,Copper,L2,Bot*%
%TF.FilePolarity,Positive*%
%FSLAX46Y46*%
G04 Gerber Fmt 4.6, Leading zero omitted, Abs format (unit mm)*
G04 Created by KiCad (PCBNEW 9.0.2) date 2025-10-21 19:11:23*
%MOMM*%
%LPD*%
G01*
G04 APERTURE LIST*
%TA.AperFunction,ViaPad*%
%ADD10C,0.600000*%
%TD*%
%TA.AperFunction,Conductor*%
%ADD11C,0.200000*%
%TD*%
%TA.AperFunction,Conductor*%
%ADD12C,0.300000*%
%TD*%
G04 APERTURE END LIST*
D10*
%TO.N,/Camera_MISO*%
X159000000Y-80000000D03*
X159100000Y-101200000D03*
%TO.N,/MISO*%
X158600000Y-98500000D03*
X147500000Y-90700000D03*
X150300000Y-93500000D03*
X153800000Y-93800000D03*
%TO.N,/SDA_I2C*%
X147700000Y-98500000D03*
X161800000Y-88800000D03*
X155833985Y-96333982D03*
X142800000Y-98500000D03*
X157044380Y-104255620D03*
X141458458Y-82658458D03*
%TO.N,/SCL_I2C*%
X162423000Y-91725735D03*
X156433985Y-95733985D03*
X158323985Y-102775728D03*
X154800000Y-93400000D03*
X157100000Y-91900000D03*
X150700000Y-95700000D03*
%TO.N,+3.3V*%
X156700000Y-80400000D03*
X155737725Y-75575735D03*
X153400000Y-80700000D03*
X163300000Y-106200000D03*
X155600000Y-80700000D03*
X168000000Y-91700000D03*
%TO.N,+5V*%
X156375735Y-76175735D03*
X164400000Y-78200000D03*
%TO.N,GND*%
X134600000Y-97400000D03*
X136400000Y-98100000D03*
X164700000Y-80200000D03*
X159500000Y-72100000D03*
X140400000Y-75900000D03*
X164200000Y-88500000D03*
X162400000Y-76400000D03*
X144200000Y-82100000D03*
X159500000Y-88767498D03*
X156200000Y-90700000D03*
X161200000Y-79600000D03*
X163400000Y-104400000D03*
X157500000Y-75900000D03*
X136800000Y-105500000D03*
X163600000Y-83300000D03*
X146000000Y-92100000D03*
X160900000Y-88200000D03*
X158200000Y-97100000D03*
X143800000Y-86100000D03*
X157200000Y-79700000D03*
X145300000Y-104400000D03*
X150100000Y-98300000D03*
X143000000Y-90700000D03*
X151400000Y-101300000D03*
X168300000Y-88200000D03*
X146000000Y-76300000D03*
X164400000Y-98700000D03*
X168800000Y-76500000D03*
X156400000Y-77200000D03*
X164200000Y-101300000D03*
X158500000Y-90900000D03*
X144400000Y-95000000D03*
X137260000Y-89850000D03*
X146800000Y-99400000D03*
X145700000Y-83500000D03*
X166700000Y-90900000D03*
X158000000Y-80800000D03*
X141700000Y-84400000D03*
X155500000Y-85500000D03*
X145700000Y-101700000D03*
X162900000Y-95400000D03*
X153771353Y-99228647D03*
%TO.N,/Radio_EN*%
X139200000Y-76600000D03*
X164100000Y-80900000D03*
%TO.N,/Radio_Reset*%
X168600000Y-86300000D03*
X137900000Y-76700000D03*
%TO.N,/Radio_G0*%
X140000000Y-80600000D03*
X168100000Y-81800000D03*
%TO.N,/Radio_CS*%
X169425000Y-98100000D03*
X139450000Y-83250000D03*
%TO.N,/SD_CS*%
X143900000Y-101300000D03*
X159922898Y-95322898D03*
%TO.N,/CAMERA_CS*%
X159600000Y-79400000D03*
X166700000Y-94570872D03*
X159000000Y-99900000D03*
X153748527Y-92300000D03*
X153771964Y-90360703D03*
%TO.N,/SCK_SPI*%
X164275735Y-84675735D03*
X147100000Y-89200000D03*
X154300000Y-87100000D03*
X141400500Y-98200500D03*
%TO.N,/MOSI*%
X161800000Y-77500000D03*
X142000000Y-100500000D03*
X163300000Y-77500000D03*
X147700000Y-91900000D03*
X154300000Y-84500000D03*
X164876197Y-86075600D03*
%TO.N,/SD_MISO*%
X158900000Y-94100000D03*
X157200000Y-92800000D03*
%TO.N,Net-(U2-CS)*%
X160500000Y-93000000D03*
X165100000Y-91000000D03*
%TD*%
D11*
%TO.N,/Camera_MISO*%
X162892836Y-80800000D02*
X159800000Y-80800000D01*
X159100000Y-101200000D02*
X167400000Y-92900000D01*
X159800000Y-80800000D02*
X159000000Y-80000000D01*
X167400000Y-92900000D02*
X167400000Y-85307164D01*
X167400000Y-85307164D02*
X162892836Y-80800000D01*
%TO.N,/MISO*%
X154700000Y-95000000D02*
X154700000Y-96200000D01*
X154700000Y-94700000D02*
X154700000Y-95000000D01*
X157100000Y-97000000D02*
X158600000Y-98500000D01*
X150300000Y-93500000D02*
X147500000Y-90700000D01*
X153800000Y-93800000D02*
X154700000Y-94700000D01*
X154700000Y-96200000D02*
X155500000Y-97000000D01*
X155500000Y-97000000D02*
X157100000Y-97000000D01*
%TO.N,/SDA_I2C*%
X142100000Y-99200000D02*
X141300000Y-99200000D01*
X163200000Y-90192387D02*
X161907613Y-88900000D01*
X141300000Y-99200000D02*
X140799500Y-98699500D01*
X150900000Y-91000000D02*
X142558458Y-82658458D01*
X161800000Y-88800000D02*
X161813800Y-88813800D01*
X147700000Y-99400000D02*
X148000000Y-99700000D01*
X159900000Y-92700000D02*
X160273265Y-92326735D01*
X161800000Y-88806187D02*
X161800000Y-88800000D01*
X163200000Y-91900000D02*
X163200000Y-90192387D01*
X161813800Y-88813800D02*
X161813800Y-88819987D01*
X162773265Y-92326735D02*
X163200000Y-91900000D01*
X154700000Y-91000000D02*
X150900000Y-91000000D01*
X160650000Y-95750000D02*
X160650000Y-94850000D01*
X151000000Y-99700000D02*
X155555620Y-104255620D01*
X157700000Y-88000000D02*
X154700000Y-91000000D01*
X161893813Y-88900000D02*
X161813800Y-88819987D01*
X142800000Y-98500000D02*
X142100000Y-99200000D01*
X159600000Y-88000000D02*
X157700000Y-88000000D01*
X161800000Y-88800000D02*
X160400000Y-88800000D01*
X142558458Y-82658458D02*
X141458458Y-82658458D01*
X155833985Y-96333982D02*
X160066018Y-96333982D01*
X147700000Y-98500000D02*
X147700000Y-99400000D01*
X161813800Y-88819987D02*
X161800000Y-88806187D01*
X161907613Y-88900000D02*
X161893813Y-88900000D01*
X159900000Y-94100000D02*
X159900000Y-92700000D01*
X140799500Y-98699500D02*
X140799500Y-83317416D01*
X148000000Y-99700000D02*
X151000000Y-99700000D01*
X140799500Y-83317416D02*
X141458458Y-82658458D01*
X160650000Y-94850000D02*
X159900000Y-94100000D01*
X160273265Y-92326735D02*
X162773265Y-92326735D01*
X160066018Y-96333982D02*
X160650000Y-95750000D01*
X155555620Y-104255620D02*
X157044380Y-104255620D01*
X160400000Y-88800000D02*
X159600000Y-88000000D01*
%TO.N,/SCL_I2C*%
X151400000Y-95700000D02*
X150700000Y-95700000D01*
X156433985Y-95733985D02*
X154800000Y-94100000D01*
X158379700Y-102679700D02*
X151400000Y-95700000D01*
X157274265Y-91725735D02*
X157100000Y-91900000D01*
X162423000Y-91725735D02*
X157274265Y-91725735D01*
X154800000Y-94100000D02*
X154800000Y-93400000D01*
X158323985Y-102775728D02*
X158379700Y-102720013D01*
X158379700Y-102720013D02*
X158379700Y-102679700D01*
%TO.N,+3.3V*%
X168000000Y-101500000D02*
X168000000Y-91700000D01*
X155700000Y-75613460D02*
X155700000Y-79400000D01*
X153400000Y-80700000D02*
X155600000Y-80700000D01*
X155737725Y-75575735D02*
X155700000Y-75613460D01*
X155700000Y-79400000D02*
X156700000Y-80400000D01*
X163300000Y-106200000D02*
X168000000Y-101500000D01*
D12*
%TO.N,+5V*%
X164400000Y-78200000D02*
X163800000Y-78800000D01*
X163800000Y-78800000D02*
X159000000Y-78800000D01*
X159000000Y-78800000D02*
X156375735Y-76175735D01*
D11*
%TO.N,GND*%
X160900000Y-88200000D02*
X163900000Y-88200000D01*
X163900000Y-88200000D02*
X164200000Y-88500000D01*
%TO.N,/Radio_EN*%
X140200000Y-77600000D02*
X142210336Y-77600000D01*
X162024678Y-74974735D02*
X165001000Y-77951057D01*
X165001000Y-78999000D02*
X164100000Y-79900000D01*
X144835601Y-74974735D02*
X162024678Y-74974735D01*
X142210336Y-77600000D02*
X144835601Y-74974735D01*
X164100000Y-79900000D02*
X164100000Y-80900000D01*
X139200000Y-76600000D02*
X140200000Y-77600000D01*
X165001000Y-77951057D02*
X165001000Y-78999000D01*
%TO.N,/Radio_Reset*%
X167401000Y-82901000D02*
X167401000Y-79783957D01*
X162190778Y-74573735D02*
X140026265Y-74573735D01*
X167401000Y-79783957D02*
X162190778Y-74573735D01*
X168600000Y-84100000D02*
X167401000Y-82901000D01*
X140026265Y-74573735D02*
X137900000Y-76700000D01*
X168600000Y-86300000D02*
X168600000Y-84100000D01*
%TO.N,/Radio_G0*%
X139400000Y-73500000D02*
X143500000Y-73500000D01*
X162500000Y-73500000D02*
X166400000Y-77400000D01*
X166400000Y-77400000D02*
X168100000Y-79100000D01*
X140000000Y-80600000D02*
X136900000Y-77500000D01*
X143500000Y-73500000D02*
X162500000Y-73500000D01*
X168100000Y-79100000D02*
X168100000Y-81800000D01*
X136900000Y-77500000D02*
X136900000Y-76000000D01*
X136900000Y-76000000D02*
X139400000Y-73500000D01*
%TO.N,/Radio_CS*%
X157400000Y-107600000D02*
X164600000Y-107600000D01*
X153100000Y-103300000D02*
X157400000Y-107600000D01*
X164600000Y-107600000D02*
X169425000Y-102775000D01*
X140000000Y-100200000D02*
X143100000Y-103300000D01*
X139450000Y-83250000D02*
X140000000Y-83800000D01*
X143100000Y-103300000D02*
X153100000Y-103300000D01*
X169425000Y-102775000D02*
X169425000Y-98100000D01*
X140000000Y-83800000D02*
X140000000Y-100200000D01*
%TO.N,/SD_CS*%
X143900000Y-101300000D02*
X143900000Y-101000000D01*
X154532900Y-91600000D02*
X158255798Y-95322898D01*
X143900000Y-101000000D02*
X153300000Y-91600000D01*
X153300000Y-91600000D02*
X154532900Y-91600000D01*
X158255798Y-95322898D02*
X159922898Y-95322898D01*
%TO.N,/CAMERA_CS*%
X158200000Y-101900000D02*
X158200000Y-100200000D01*
X158600000Y-102300000D02*
X158200000Y-101900000D01*
X153748527Y-92300000D02*
X153000000Y-93048527D01*
X159100000Y-102300000D02*
X158600000Y-102300000D01*
X166700000Y-94700000D02*
X159100000Y-102300000D01*
X153298000Y-89798000D02*
X153298000Y-84652057D01*
X158500000Y-99900000D02*
X159000000Y-99900000D01*
X158550057Y-79400000D02*
X159600000Y-79400000D01*
X153771964Y-90360703D02*
X153771964Y-90271964D01*
X158200000Y-100200000D02*
X158500000Y-99900000D01*
X153771964Y-90271964D02*
X153298000Y-89798000D01*
X153298000Y-84652057D02*
X158550057Y-79400000D01*
X166700000Y-94570872D02*
X166700000Y-94700000D01*
X153000000Y-93048527D02*
X153000000Y-95400000D01*
X157500000Y-99900000D02*
X159000000Y-99900000D01*
X153000000Y-95400000D02*
X157500000Y-99900000D01*
%TO.N,/SCK_SPI*%
X141500000Y-94800000D02*
X147100000Y-89200000D01*
X141400500Y-98200500D02*
X141500000Y-98101000D01*
X163291836Y-87151000D02*
X164275735Y-86167101D01*
X154351000Y-87151000D02*
X163291836Y-87151000D01*
X154300000Y-87100000D02*
X154351000Y-87151000D01*
X164275735Y-86167101D02*
X164275735Y-84675735D01*
X141500000Y-98101000D02*
X141500000Y-94800000D01*
%TO.N,/MOSI*%
X163457936Y-87552000D02*
X164876197Y-86133739D01*
X142000000Y-100500000D02*
X147700000Y-94800000D01*
X153699000Y-85101000D02*
X153699000Y-87348943D01*
X164876197Y-86133739D02*
X164876197Y-86075600D01*
X154697943Y-87552000D02*
X163457936Y-87552000D01*
X154051057Y-87701000D02*
X154548943Y-87701000D01*
X147700000Y-94800000D02*
X147700000Y-91900000D01*
X154548943Y-87701000D02*
X154697943Y-87552000D01*
X153699000Y-87348943D02*
X154051057Y-87701000D01*
X154300000Y-84500000D02*
X153699000Y-85101000D01*
X163300000Y-77500000D02*
X161800000Y-77500000D01*
%TO.N,/SD_MISO*%
X157600000Y-92800000D02*
X158900000Y-94100000D01*
X157200000Y-92800000D02*
X157600000Y-92800000D01*
%TO.N,Net-(U2-CS)*%
X160500000Y-93300000D02*
X160500000Y-93000000D01*
X160800000Y-93600000D02*
X160500000Y-93300000D01*
X163700000Y-93600000D02*
X160800000Y-93600000D01*
X165100000Y-92200000D02*
X163700000Y-93600000D01*
X165100000Y-91000000D02*
X165100000Y-92200000D01*
%TD*%
%TA.AperFunction,Conductor*%
%TO.N,GND*%
G36*
X169667539Y-71620185D02*
G01*
X169713294Y-71672989D01*
X169724500Y-71724500D01*
X169724500Y-97396967D01*
X169704815Y-97464006D01*
X169652011Y-97509761D01*
X169582853Y-97519705D01*
X169568408Y-97516742D01*
X169504058Y-97499500D01*
X169504057Y-97499500D01*
X169345943Y-97499500D01*
X169193216Y-97540423D01*
X169193209Y-97540426D01*
X169056290Y-97619475D01*
X169056282Y-97619481D01*
X168944481Y-97731282D01*
X168944475Y-97731290D01*
X168865426Y-97868209D01*
X168865423Y-97868216D01*
X168824500Y-98020943D01*
X168824500Y-98179057D01*
X168857429Y-98301948D01*
X168865423Y-98331783D01*
X168865426Y-98331790D01*
X168944475Y-98468709D01*
X168944481Y-98468717D01*
X168988181Y-98512417D01*
X169021666Y-98573740D01*
X169024500Y-98600098D01*
X169024500Y-102557745D01*
X169004815Y-102624784D01*
X168988181Y-102645426D01*
X164470426Y-107163181D01*
X164409103Y-107196666D01*
X164382745Y-107199500D01*
X157617255Y-107199500D01*
X157550216Y-107179815D01*
X157529574Y-107163181D01*
X153345915Y-102979522D01*
X153345913Y-102979520D01*
X153300250Y-102953156D01*
X153254589Y-102926793D01*
X153203657Y-102913146D01*
X153152727Y-102899500D01*
X153152726Y-102899500D01*
X143317255Y-102899500D01*
X143250216Y-102879815D01*
X143229574Y-102863181D01*
X141624457Y-101258064D01*
X141590972Y-101196741D01*
X141595956Y-101127049D01*
X141637828Y-101071116D01*
X141703292Y-101046699D01*
X141759671Y-101058963D01*
X141760706Y-101056466D01*
X141768209Y-101059573D01*
X141768216Y-101059577D01*
X141920943Y-101100500D01*
X141920945Y-101100500D01*
X142079055Y-101100500D01*
X142079057Y-101100500D01*
X142231784Y-101059577D01*
X142368716Y-100980520D01*
X142480520Y-100868716D01*
X142559577Y-100731784D01*
X142600500Y-100579057D01*
X142600500Y-100517255D01*
X142620185Y-100450216D01*
X142636819Y-100429574D01*
X145324729Y-97741664D01*
X148020480Y-95045913D01*
X148073207Y-94954588D01*
X148100500Y-94852727D01*
X148100500Y-94747273D01*
X148100500Y-92400098D01*
X148106778Y-92378714D01*
X148108422Y-92356488D01*
X148117394Y-92342563D01*
X148120185Y-92333059D01*
X148125410Y-92325551D01*
X148130649Y-92318586D01*
X148180520Y-92268716D01*
X148221278Y-92198120D01*
X148225805Y-92192103D01*
X148248025Y-92175551D01*
X148268074Y-92156435D01*
X148275649Y-92154974D01*
X148281838Y-92150365D01*
X148309477Y-92148454D01*
X148336681Y-92143211D01*
X148343844Y-92146079D01*
X148351542Y-92145547D01*
X148375825Y-92158882D01*
X148401546Y-92169179D01*
X148412576Y-92178969D01*
X149663181Y-93429574D01*
X149696666Y-93490897D01*
X149699500Y-93517255D01*
X149699500Y-93579057D01*
X149724844Y-93673640D01*
X149740423Y-93731783D01*
X149740426Y-93731790D01*
X149819475Y-93868709D01*
X149819479Y-93868714D01*
X149819480Y-93868716D01*
X149931284Y-93980520D01*
X150058747Y-94054110D01*
X150106962Y-94104676D01*
X150120186Y-94173283D01*
X150094218Y-94238148D01*
X150084428Y-94249178D01*
X143579521Y-100754084D01*
X143562433Y-100783681D01*
X143536524Y-100813226D01*
X143537031Y-100813733D01*
X143419478Y-100931286D01*
X143419475Y-100931290D01*
X143340426Y-101068209D01*
X143340423Y-101068216D01*
X143299500Y-101220943D01*
X143299500Y-101379057D01*
X143317779Y-101447273D01*
X143340423Y-101531783D01*
X143340426Y-101531790D01*
X143419475Y-101668709D01*
X143419479Y-101668714D01*
X143419480Y-101668716D01*
X143531284Y-101780520D01*
X143531286Y-101780521D01*
X143531290Y-101780524D01*
X143600497Y-101820480D01*
X143668216Y-101859577D01*
X143820943Y-101900500D01*
X143820945Y-101900500D01*
X143979055Y-101900500D01*
X143979057Y-101900500D01*
X144131784Y-101859577D01*
X144268716Y-101780520D01*
X144380520Y-101668716D01*
X144459577Y-101531784D01*
X144500500Y-101379057D01*
X144500500Y-101220943D01*
X144465130Y-101088940D01*
X144466793Y-101019091D01*
X144497222Y-100969169D01*
X146902798Y-98563593D01*
X146964119Y-98530110D01*
X147033811Y-98535094D01*
X147089744Y-98576966D01*
X147110250Y-98619179D01*
X147140423Y-98731784D01*
X147140424Y-98731785D01*
X147140426Y-98731790D01*
X147219475Y-98868709D01*
X147219481Y-98868717D01*
X147263181Y-98912417D01*
X147296666Y-98973740D01*
X147299500Y-99000098D01*
X147299500Y-99452726D01*
X147326793Y-99554589D01*
X147353156Y-99600250D01*
X147379520Y-99645913D01*
X147754087Y-100020480D01*
X147845412Y-100073207D01*
X147947273Y-100100500D01*
X150782745Y-100100500D01*
X150849784Y-100120185D01*
X150870426Y-100136819D01*
X155235138Y-104501530D01*
X155235140Y-104501533D01*
X155309707Y-104576100D01*
X155379005Y-104616109D01*
X155401031Y-104628826D01*
X155401032Y-104628826D01*
X155401033Y-104628827D01*
X155502893Y-104656121D01*
X155502895Y-104656121D01*
X155615943Y-104656121D01*
X155615959Y-104656120D01*
X156544282Y-104656120D01*
X156611321Y-104675805D01*
X156631963Y-104692439D01*
X156675664Y-104736140D01*
X156675666Y-104736141D01*
X156675670Y-104736144D01*
X156812589Y-104815193D01*
X156812596Y-104815197D01*
X156965323Y-104856120D01*
X156965325Y-104856120D01*
X157123435Y-104856120D01*
X157123437Y-104856120D01*
X157276164Y-104815197D01*
X157413096Y-104736140D01*
X157524900Y-104624336D01*
X157603957Y-104487404D01*
X157644880Y-104334677D01*
X157644880Y-104176563D01*
X157603957Y-104023836D01*
X157603953Y-104023829D01*
X157524904Y-103886910D01*
X157524898Y-103886902D01*
X157413097Y-103775101D01*
X157413089Y-103775095D01*
X157276170Y-103696046D01*
X157276166Y-103696044D01*
X157276164Y-103696043D01*
X157123437Y-103655120D01*
X156965323Y-103655120D01*
X156812596Y-103696043D01*
X156812589Y-103696046D01*
X156675670Y-103775095D01*
X156675662Y-103775101D01*
X156631963Y-103818801D01*
X156570640Y-103852286D01*
X156544282Y-103855120D01*
X155772874Y-103855120D01*
X155705835Y-103835435D01*
X155685193Y-103818801D01*
X151245915Y-99379522D01*
X151245914Y-99379521D01*
X151245913Y-99379520D01*
X151178196Y-99340423D01*
X151154589Y-99326793D01*
X151103657Y-99313146D01*
X151052727Y-99299500D01*
X151052726Y-99299500D01*
X148224500Y-99299500D01*
X148215814Y-99296949D01*
X148206853Y-99298238D01*
X148182812Y-99287259D01*
X148157461Y-99279815D01*
X148151533Y-99272974D01*
X148143297Y-99269213D01*
X148129007Y-99246978D01*
X148111706Y-99227011D01*
X148109418Y-99216496D01*
X148105523Y-99210435D01*
X148100500Y-99175500D01*
X148100500Y-99000098D01*
X148120185Y-98933059D01*
X148136819Y-98912417D01*
X148180520Y-98868716D01*
X148259577Y-98731784D01*
X148300500Y-98579057D01*
X148300500Y-98420943D01*
X148259577Y-98268216D01*
X148208101Y-98179056D01*
X148180524Y-98131290D01*
X148180518Y-98131282D01*
X148068717Y-98019481D01*
X148068709Y-98019475D01*
X147931790Y-97940426D01*
X147931787Y-97940424D01*
X147931784Y-97940423D01*
X147819180Y-97910251D01*
X147759522Y-97873887D01*
X147728993Y-97811040D01*
X147737288Y-97741664D01*
X147763592Y-97702799D01*
X149887819Y-95578572D01*
X149949142Y-95545088D01*
X150018834Y-95550072D01*
X150074767Y-95591944D01*
X150099184Y-95657408D01*
X150099500Y-95666254D01*
X150099500Y-95779057D01*
X150137364Y-95920365D01*
X150140423Y-95931783D01*
X150140426Y-95931790D01*
X150219475Y-96068709D01*
X150219479Y-96068714D01*
X150219480Y-96068716D01*
X150331284Y-96180520D01*
X150331286Y-96180521D01*
X150331290Y-96180524D01*
X150468209Y-96259573D01*
X150468216Y-96259577D01*
X150620943Y-96300500D01*
X150620945Y-96300500D01*
X150779055Y-96300500D01*
X150779057Y-96300500D01*
X150931784Y-96259577D01*
X151068716Y-96180520D01*
X151103741Y-96145494D01*
X151165061Y-96112010D01*
X151234753Y-96116994D01*
X151279102Y-96145495D01*
X157695429Y-102561822D01*
X157728914Y-102623145D01*
X157727524Y-102681592D01*
X157723485Y-102696665D01*
X157723485Y-102696671D01*
X157723485Y-102854785D01*
X157742780Y-102926793D01*
X157764408Y-103007511D01*
X157764411Y-103007518D01*
X157843460Y-103144437D01*
X157843464Y-103144442D01*
X157843465Y-103144444D01*
X157955269Y-103256248D01*
X157955271Y-103256249D01*
X157955275Y-103256252D01*
X158087185Y-103332409D01*
X158092201Y-103335305D01*
X158244928Y-103376228D01*
X158244930Y-103376228D01*
X158403040Y-103376228D01*
X158403042Y-103376228D01*
X158555769Y-103335305D01*
X158692701Y-103256248D01*
X158804505Y-103144444D01*
X158883562Y-103007512D01*
X158924485Y-102854785D01*
X158924485Y-102824500D01*
X158944170Y-102757461D01*
X158996974Y-102711706D01*
X159048485Y-102700500D01*
X159152725Y-102700500D01*
X159152727Y-102700500D01*
X159254588Y-102673207D01*
X159345913Y-102620480D01*
X166777370Y-95189021D01*
X166832957Y-95156929D01*
X166931781Y-95130450D01*
X166931782Y-95130449D01*
X166931784Y-95130449D01*
X166989433Y-95097166D01*
X167068709Y-95051396D01*
X167068708Y-95051396D01*
X167068716Y-95051392D01*
X167180520Y-94939588D01*
X167259577Y-94802656D01*
X167300500Y-94649929D01*
X167300500Y-94491815D01*
X167259577Y-94339088D01*
X167255360Y-94331784D01*
X167180524Y-94202162D01*
X167180518Y-94202154D01*
X167068717Y-94090353D01*
X167068712Y-94090349D01*
X167023115Y-94064024D01*
X166974900Y-94013457D01*
X166961676Y-93944850D01*
X166987644Y-93879985D01*
X166997424Y-93868966D01*
X167387820Y-93478571D01*
X167449142Y-93445087D01*
X167518834Y-93450071D01*
X167574767Y-93491943D01*
X167599184Y-93557407D01*
X167599500Y-93566253D01*
X167599500Y-101282745D01*
X167579815Y-101349784D01*
X167563181Y-101370426D01*
X163370426Y-105563181D01*
X163309103Y-105596666D01*
X163282745Y-105599500D01*
X163220943Y-105599500D01*
X163068216Y-105640423D01*
X163068209Y-105640426D01*
X162931290Y-105719475D01*
X162931282Y-105719481D01*
X162819481Y-105831282D01*
X162819475Y-105831290D01*
X162740426Y-105968209D01*
X162740423Y-105968216D01*
X162699500Y-106120943D01*
X162699500Y-106279057D01*
X162720194Y-106356286D01*
X162740423Y-106431783D01*
X162740426Y-106431790D01*
X162819475Y-106568709D01*
X162819479Y-106568714D01*
X162819480Y-106568716D01*
X162931284Y-106680520D01*
X162931286Y-106680521D01*
X162931290Y-106680524D01*
X163068209Y-106759573D01*
X163068216Y-106759577D01*
X163220943Y-106800500D01*
X163220945Y-106800500D01*
X163379055Y-106800500D01*
X163379057Y-106800500D01*
X163531784Y-106759577D01*
X163668716Y-106680520D01*
X163780520Y-106568716D01*
X163859577Y-106431784D01*
X163900500Y-106279057D01*
X163900500Y-106217253D01*
X163920185Y-106150214D01*
X163936814Y-106129577D01*
X168245910Y-101820481D01*
X168245913Y-101820480D01*
X168320480Y-101745913D01*
X168365050Y-101668716D01*
X168373207Y-101654588D01*
X168400501Y-101552727D01*
X168400501Y-101447273D01*
X168400501Y-101439678D01*
X168400500Y-101439660D01*
X168400500Y-92200098D01*
X168420185Y-92133059D01*
X168436819Y-92112417D01*
X168480520Y-92068716D01*
X168559577Y-91931784D01*
X168600500Y-91779057D01*
X168600500Y-91620943D01*
X168559577Y-91468216D01*
X168504724Y-91373207D01*
X168480524Y-91331290D01*
X168480518Y-91331282D01*
X168368717Y-91219481D01*
X168368709Y-91219475D01*
X168231790Y-91140426D01*
X168231786Y-91140424D01*
X168231784Y-91140423D01*
X168079057Y-91099500D01*
X167924500Y-91099500D01*
X167857461Y-91079815D01*
X167811706Y-91027011D01*
X167800500Y-90975500D01*
X167800500Y-86575948D01*
X167820185Y-86508909D01*
X167872989Y-86463154D01*
X167942147Y-86453210D01*
X168005703Y-86482235D01*
X168036357Y-86524747D01*
X168036359Y-86524746D01*
X168036368Y-86524763D01*
X168039062Y-86528498D01*
X168040424Y-86531788D01*
X168119475Y-86668709D01*
X168119479Y-86668714D01*
X168119480Y-86668716D01*
X168231284Y-86780520D01*
X168231286Y-86780521D01*
X168231290Y-86780524D01*
X168368209Y-86859573D01*
X168368216Y-86859577D01*
X168520943Y-86900500D01*
X168520945Y-86900500D01*
X168679055Y-86900500D01*
X168679057Y-86900500D01*
X168831784Y-86859577D01*
X168968716Y-86780520D01*
X169080520Y-86668716D01*
X169159577Y-86531784D01*
X169200500Y-86379057D01*
X169200500Y-86220943D01*
X169159577Y-86068216D01*
X169134079Y-86024051D01*
X169080524Y-85931290D01*
X169080518Y-85931282D01*
X169036819Y-85887583D01*
X169003334Y-85826260D01*
X169000500Y-85799902D01*
X169000500Y-84047275D01*
X169000500Y-84047273D01*
X168973207Y-83945413D01*
X168973207Y-83945412D01*
X168920480Y-83854087D01*
X167837819Y-82771426D01*
X167823115Y-82744498D01*
X167806523Y-82718680D01*
X167805631Y-82712479D01*
X167804334Y-82710103D01*
X167801500Y-82683745D01*
X167801500Y-82503300D01*
X167821185Y-82436261D01*
X167873989Y-82390506D01*
X167943147Y-82380562D01*
X167957582Y-82383522D01*
X168020943Y-82400500D01*
X168020946Y-82400500D01*
X168179055Y-82400500D01*
X168179057Y-82400500D01*
X168331784Y-82359577D01*
X168468716Y-82280520D01*
X168580520Y-82168716D01*
X168659577Y-82031784D01*
X168700500Y-81879057D01*
X168700500Y-81720943D01*
X168659577Y-81568216D01*
X168608540Y-81479816D01*
X168580524Y-81431290D01*
X168580518Y-81431282D01*
X168536819Y-81387583D01*
X168503334Y-81326260D01*
X168500500Y-81299902D01*
X168500500Y-79047273D01*
X168496216Y-79031284D01*
X168473207Y-78945412D01*
X168420480Y-78854087D01*
X166645913Y-77079520D01*
X163094706Y-73528313D01*
X165959300Y-73528313D01*
X165959300Y-73740886D01*
X165990332Y-73936819D01*
X165992554Y-73950843D01*
X166021626Y-74040318D01*
X166058244Y-74153014D01*
X166154751Y-74342420D01*
X166279690Y-74514386D01*
X166430013Y-74664709D01*
X166601979Y-74789648D01*
X166601981Y-74789649D01*
X166601984Y-74789651D01*
X166791388Y-74886157D01*
X166993557Y-74951846D01*
X167203513Y-74985100D01*
X167203514Y-74985100D01*
X167416086Y-74985100D01*
X167416087Y-74985100D01*
X167626043Y-74951846D01*
X167828212Y-74886157D01*
X168017616Y-74789651D01*
X168039589Y-74773686D01*
X168189586Y-74664709D01*
X168189588Y-74664706D01*
X168189592Y-74664704D01*
X168339904Y-74514392D01*
X168339906Y-74514388D01*
X168339909Y-74514386D01*
X168464848Y-74342420D01*
X168464847Y-74342420D01*
X168464851Y-74342416D01*
X168561357Y-74153012D01*
X168627046Y-73950843D01*
X168660300Y-73740887D01*
X168660300Y-73528313D01*
X168627046Y-73318357D01*
X168561357Y-73116188D01*
X168464851Y-72926784D01*
X168464849Y-72926781D01*
X168464848Y-72926779D01*
X168339909Y-72754813D01*
X168189586Y-72604490D01*
X168017620Y-72479551D01*
X167828214Y-72383044D01*
X167828213Y-72383043D01*
X167828212Y-72383043D01*
X167626043Y-72317354D01*
X167626041Y-72317353D01*
X167626040Y-72317353D01*
X167464757Y-72291808D01*
X167416087Y-72284100D01*
X167203513Y-72284100D01*
X167154842Y-72291808D01*
X166993560Y-72317353D01*
X166791385Y-72383044D01*
X166601979Y-72479551D01*
X166430013Y-72604490D01*
X166279690Y-72754813D01*
X166154751Y-72926779D01*
X166058244Y-73116185D01*
X165992553Y-73318360D01*
X165959300Y-73528313D01*
X163094706Y-73528313D01*
X162745913Y-73179520D01*
X162700250Y-73153156D01*
X162654589Y-73126793D01*
X162603657Y-73113146D01*
X162552727Y-73099500D01*
X143552727Y-73099500D01*
X139452727Y-73099500D01*
X139347273Y-73099500D01*
X139245410Y-73126793D01*
X139154087Y-73179520D01*
X139154084Y-73179522D01*
X136579522Y-75754084D01*
X136579520Y-75754087D01*
X136526791Y-75845414D01*
X136502462Y-75936218D01*
X136502461Y-75936222D01*
X136499500Y-75947271D01*
X136499500Y-77552726D01*
X136526793Y-77654589D01*
X136553156Y-77700250D01*
X136579520Y-77745913D01*
X136579522Y-77745915D01*
X139363181Y-80529574D01*
X139396666Y-80590897D01*
X139399500Y-80617255D01*
X139399500Y-80679057D01*
X139411738Y-80724728D01*
X139440423Y-80831783D01*
X139440426Y-80831790D01*
X139519475Y-80968709D01*
X139519479Y-80968714D01*
X139519480Y-80968716D01*
X139631284Y-81080520D01*
X139631286Y-81080521D01*
X139631290Y-81080524D01*
X139751008Y-81149642D01*
X139768216Y-81159577D01*
X139920943Y-81200500D01*
X139920945Y-81200500D01*
X140079055Y-81200500D01*
X140079057Y-81200500D01*
X140231784Y-81159577D01*
X140368716Y-81080520D01*
X140480520Y-80968716D01*
X140559577Y-80831784D01*
X140600500Y-80679057D01*
X140600500Y-80520943D01*
X140559577Y-80368216D01*
X140538258Y-80331290D01*
X140480524Y-80231290D01*
X140480518Y-80231282D01*
X140368717Y-80119481D01*
X140368709Y-80119475D01*
X140231790Y-80040426D01*
X140231786Y-80040424D01*
X140231784Y-80040423D01*
X140079057Y-79999500D01*
X140079056Y-79999500D01*
X140017255Y-79999500D01*
X139950216Y-79979815D01*
X139929574Y-79963181D01*
X137336819Y-77370426D01*
X137322115Y-77343498D01*
X137305523Y-77317680D01*
X137304631Y-77311479D01*
X137303334Y-77309103D01*
X137300500Y-77282745D01*
X137300500Y-77249098D01*
X137320185Y-77182059D01*
X137372989Y-77136304D01*
X137442147Y-77126360D01*
X137505703Y-77155385D01*
X137512181Y-77161417D01*
X137531284Y-77180520D01*
X137531286Y-77180521D01*
X137531290Y-77180524D01*
X137668209Y-77259573D01*
X137668216Y-77259577D01*
X137820943Y-77300500D01*
X137820945Y-77300500D01*
X137979055Y-77300500D01*
X137979057Y-77300500D01*
X138131784Y-77259577D01*
X138268716Y-77180520D01*
X138380520Y-77068716D01*
X138459577Y-76931784D01*
X138459579Y-76931773D01*
X138462686Y-76924277D01*
X138465760Y-76925550D01*
X138493996Y-76879124D01*
X138556812Y-76848532D01*
X138626196Y-76856758D01*
X138680118Y-76901190D01*
X138684884Y-76908795D01*
X138719477Y-76968712D01*
X138719479Y-76968715D01*
X138719480Y-76968716D01*
X138831284Y-77080520D01*
X138831286Y-77080521D01*
X138831290Y-77080524D01*
X138960955Y-77155385D01*
X138968216Y-77159577D01*
X139120943Y-77200500D01*
X139182745Y-77200500D01*
X139249784Y-77220185D01*
X139270426Y-77236819D01*
X139875179Y-77841571D01*
X139875189Y-77841582D01*
X139879519Y-77845912D01*
X139879520Y-77845913D01*
X139954087Y-77920480D01*
X139954089Y-77920481D01*
X139954090Y-77920482D01*
X140036762Y-77968213D01*
X140036763Y-77968213D01*
X140036768Y-77968216D01*
X140045413Y-77973207D01*
X140147273Y-78000501D01*
X140147275Y-78000501D01*
X140260323Y-78000501D01*
X140260339Y-78000500D01*
X142263061Y-78000500D01*
X142263063Y-78000500D01*
X142364924Y-77973207D01*
X142456249Y-77920480D01*
X144965175Y-75411554D01*
X145026498Y-75378069D01*
X145052856Y-75375235D01*
X155013225Y-75375235D01*
X155080264Y-75394920D01*
X155126019Y-75447724D01*
X155137225Y-75499235D01*
X155137225Y-75654792D01*
X155178014Y-75807017D01*
X155178148Y-75807518D01*
X155178151Y-75807525D01*
X155257200Y-75944444D01*
X155257206Y-75944452D01*
X155263181Y-75950427D01*
X155296666Y-76011750D01*
X155299500Y-76038108D01*
X155299500Y-79347273D01*
X155299500Y-79452727D01*
X155306555Y-79479056D01*
X155326793Y-79554589D01*
X155353156Y-79600250D01*
X155379520Y-79645913D01*
X155379521Y-79645914D01*
X155379522Y-79645915D01*
X155621426Y-79887819D01*
X155654911Y-79949142D01*
X155649927Y-80018834D01*
X155608055Y-80074767D01*
X155542591Y-80099184D01*
X155533745Y-80099500D01*
X155520943Y-80099500D01*
X155368216Y-80140423D01*
X155368209Y-80140426D01*
X155231290Y-80219475D01*
X155231282Y-80219481D01*
X155187583Y-80263181D01*
X155126260Y-80296666D01*
X155099902Y-80299500D01*
X153900098Y-80299500D01*
X153833059Y-80279815D01*
X153812417Y-80263181D01*
X153768717Y-80219481D01*
X153768709Y-80219475D01*
X153631790Y-80140426D01*
X153631786Y-80140424D01*
X153631784Y-80140423D01*
X153479057Y-80099500D01*
X153320943Y-80099500D01*
X153168216Y-80140423D01*
X153168209Y-80140426D01*
X153031290Y-80219475D01*
X153031282Y-80219481D01*
X152919481Y-80331282D01*
X152919475Y-80331290D01*
X152840426Y-80468209D01*
X152840423Y-80468216D01*
X152799500Y-80620943D01*
X152799500Y-80779057D01*
X152810724Y-80820943D01*
X152840423Y-80931783D01*
X152840426Y-80931790D01*
X152919475Y-81068709D01*
X152919479Y-81068714D01*
X152919480Y-81068716D01*
X153031284Y-81180520D01*
X153031286Y-81180521D01*
X153031290Y-81180524D01*
X153098512Y-81219334D01*
X153168216Y-81259577D01*
X153320943Y-81300500D01*
X153320945Y-81300500D01*
X153479055Y-81300500D01*
X153479057Y-81300500D01*
X153631784Y-81259577D01*
X153768716Y-81180520D01*
X153812417Y-81136819D01*
X153873740Y-81103334D01*
X153900098Y-81100500D01*
X155099902Y-81100500D01*
X155166941Y-81120185D01*
X155187583Y-81136819D01*
X155231284Y-81180520D01*
X155231286Y-81180521D01*
X155231290Y-81180524D01*
X155298512Y-81219334D01*
X155368216Y-81259577D01*
X155520943Y-81300500D01*
X155520945Y-81300500D01*
X155679054Y-81300500D01*
X155679057Y-81300500D01*
X155784076Y-81272360D01*
X155853920Y-81274023D01*
X155911783Y-81313185D01*
X155939288Y-81377413D01*
X155927702Y-81446315D01*
X155903846Y-81479816D01*
X152977522Y-84406141D01*
X152977520Y-84406144D01*
X152924793Y-84497469D01*
X152909987Y-84552727D01*
X152909987Y-84552728D01*
X152909986Y-84552727D01*
X152897500Y-84599328D01*
X152897500Y-89850726D01*
X152924793Y-89952589D01*
X152947539Y-89991985D01*
X152977520Y-90043913D01*
X152977522Y-90043915D01*
X153135145Y-90201538D01*
X153149051Y-90227006D01*
X153165419Y-90250976D01*
X153166754Y-90259426D01*
X153168630Y-90262861D01*
X153171416Y-90285757D01*
X153171464Y-90287475D01*
X153171464Y-90439760D01*
X153176212Y-90457481D01*
X153176619Y-90472038D01*
X153171278Y-90492304D01*
X153170780Y-90513253D01*
X153162554Y-90525406D01*
X153158814Y-90539601D01*
X153143364Y-90553762D01*
X153131620Y-90571116D01*
X153118128Y-90576894D01*
X153107308Y-90586812D01*
X153086656Y-90590372D01*
X153067392Y-90598623D01*
X153052667Y-90599500D01*
X151117255Y-90599500D01*
X151050216Y-90579815D01*
X151029574Y-90563181D01*
X142804373Y-82337980D01*
X142804371Y-82337978D01*
X142758708Y-82311614D01*
X142713047Y-82285251D01*
X142662115Y-82271604D01*
X142611185Y-82257958D01*
X142611184Y-82257958D01*
X141958556Y-82257958D01*
X141891517Y-82238273D01*
X141870875Y-82221639D01*
X141827175Y-82177939D01*
X141827167Y-82177933D01*
X141690248Y-82098884D01*
X141690244Y-82098882D01*
X141690242Y-82098881D01*
X141537515Y-82057958D01*
X141379401Y-82057958D01*
X141226674Y-82098881D01*
X141226667Y-82098884D01*
X141089748Y-82177933D01*
X141089740Y-82177939D01*
X140977939Y-82289740D01*
X140977933Y-82289748D01*
X140898884Y-82426667D01*
X140898881Y-82426674D01*
X140857958Y-82579401D01*
X140857958Y-82641203D01*
X140838273Y-82708242D01*
X140821639Y-82728884D01*
X140479022Y-83071500D01*
X140479018Y-83071506D01*
X140426292Y-83162828D01*
X140426293Y-83162829D01*
X140399000Y-83264689D01*
X140399000Y-83333245D01*
X140392761Y-83354490D01*
X140391182Y-83376579D01*
X140383109Y-83387362D01*
X140379315Y-83400284D01*
X140362581Y-83414783D01*
X140349310Y-83432512D01*
X140336689Y-83437219D01*
X140326511Y-83446039D01*
X140304593Y-83449190D01*
X140283846Y-83456929D01*
X140270685Y-83454066D01*
X140257353Y-83455983D01*
X140237209Y-83446783D01*
X140215573Y-83442077D01*
X140197847Y-83428808D01*
X140193797Y-83426958D01*
X140187319Y-83420926D01*
X140086819Y-83320426D01*
X140053334Y-83259103D01*
X140050500Y-83232745D01*
X140050500Y-83170945D01*
X140050500Y-83170943D01*
X140009577Y-83018216D01*
X139972344Y-82953726D01*
X139930524Y-82881290D01*
X139930518Y-82881282D01*
X139818717Y-82769481D01*
X139818709Y-82769475D01*
X139681790Y-82690426D01*
X139681786Y-82690424D01*
X139681784Y-82690423D01*
X139529057Y-82649500D01*
X139370943Y-82649500D01*
X139218216Y-82690423D01*
X139218209Y-82690426D01*
X139081290Y-82769475D01*
X139081282Y-82769481D01*
X138969481Y-82881282D01*
X138969475Y-82881290D01*
X138890426Y-83018209D01*
X138890423Y-83018216D01*
X138849500Y-83170943D01*
X138849500Y-83329057D01*
X138889817Y-83479520D01*
X138890423Y-83481783D01*
X138890426Y-83481790D01*
X138969475Y-83618709D01*
X138969479Y-83618714D01*
X138969480Y-83618716D01*
X139081284Y-83730520D01*
X139081286Y-83730521D01*
X139081290Y-83730524D01*
X139100603Y-83741674D01*
X139218216Y-83809577D01*
X139370943Y-83850500D01*
X139432745Y-83850500D01*
X139462185Y-83859144D01*
X139492172Y-83865668D01*
X139497187Y-83869422D01*
X139499784Y-83870185D01*
X139520426Y-83886819D01*
X139563181Y-83929574D01*
X139596666Y-83990897D01*
X139599500Y-84017255D01*
X139599500Y-100147273D01*
X139599500Y-100252727D01*
X139612300Y-100300499D01*
X139626793Y-100354589D01*
X139633320Y-100365893D01*
X139679520Y-100445913D01*
X142854087Y-103620480D01*
X142945412Y-103673207D01*
X143047273Y-103700500D01*
X152882745Y-103700500D01*
X152949784Y-103720185D01*
X152970426Y-103736819D01*
X157079519Y-107845912D01*
X157079520Y-107845913D01*
X157154087Y-107920480D01*
X157245413Y-107973207D01*
X157347273Y-108000500D01*
X157347275Y-108000500D01*
X164652725Y-108000500D01*
X164652727Y-108000500D01*
X164754588Y-107973207D01*
X164845913Y-107920480D01*
X169512819Y-103253574D01*
X169574142Y-103220089D01*
X169643834Y-103225073D01*
X169699767Y-103266945D01*
X169724184Y-103332409D01*
X169724500Y-103341255D01*
X169724500Y-108275500D01*
X169704815Y-108342539D01*
X169652011Y-108388294D01*
X169600500Y-108399500D01*
X133582500Y-108399500D01*
X133515461Y-108379815D01*
X133469706Y-108327011D01*
X133458500Y-108275500D01*
X133458500Y-106143713D01*
X150399500Y-106143713D01*
X150399500Y-106356287D01*
X150432754Y-106566243D01*
X150495572Y-106759577D01*
X150498444Y-106768414D01*
X150594951Y-106957820D01*
X150719890Y-107129786D01*
X150870213Y-107280109D01*
X151042179Y-107405048D01*
X151042181Y-107405049D01*
X151042184Y-107405051D01*
X151231588Y-107501557D01*
X151433757Y-107567246D01*
X151643713Y-107600500D01*
X151643714Y-107600500D01*
X151856286Y-107600500D01*
X151856287Y-107600500D01*
X152066243Y-107567246D01*
X152268412Y-107501557D01*
X152457816Y-107405051D01*
X152479789Y-107389086D01*
X152629786Y-107280109D01*
X152629788Y-107280106D01*
X152629792Y-107280104D01*
X152780104Y-107129792D01*
X152780106Y-107129788D01*
X152780109Y-107129786D01*
X152905048Y-106957820D01*
X152905047Y-106957820D01*
X152905051Y-106957816D01*
X153001557Y-106768412D01*
X153067246Y-106566243D01*
X153100500Y-106356287D01*
X153100500Y-106143713D01*
X153067246Y-105933757D01*
X153001557Y-105731588D01*
X152905051Y-105542184D01*
X152905049Y-105542181D01*
X152905048Y-105542179D01*
X152780109Y-105370213D01*
X152629786Y-105219890D01*
X152457820Y-105094951D01*
X152268414Y-104998444D01*
X152268413Y-104998443D01*
X152268412Y-104998443D01*
X152066243Y-104932754D01*
X152066241Y-104932753D01*
X152066240Y-104932753D01*
X151904957Y-104907208D01*
X151856287Y-104899500D01*
X151643713Y-104899500D01*
X151595042Y-104907208D01*
X151433760Y-104932753D01*
X151231585Y-104998444D01*
X151042179Y-105094951D01*
X150870213Y-105219890D01*
X150719890Y-105370213D01*
X150594951Y-105542179D01*
X150498444Y-105731585D01*
X150432753Y-105933760D01*
X150427297Y-105968209D01*
X150399500Y-106143713D01*
X133458500Y-106143713D01*
X133458500Y-71724500D01*
X133478185Y-71657461D01*
X133530989Y-71611706D01*
X133582500Y-71600500D01*
X169600500Y-71600500D01*
X169667539Y-71620185D01*
G37*
%TD.AperFunction*%
%TA.AperFunction,Conductor*%
G36*
X163455203Y-81929206D02*
G01*
X163461681Y-81935238D01*
X166963181Y-85436738D01*
X166996666Y-85498061D01*
X166999500Y-85524419D01*
X166999500Y-92682745D01*
X166979815Y-92749784D01*
X166963181Y-92770426D01*
X159812181Y-99921426D01*
X159750858Y-99954911D01*
X159681166Y-99949927D01*
X159625233Y-99908055D01*
X159600816Y-99842591D01*
X159600500Y-99833745D01*
X159600500Y-99820945D01*
X159600500Y-99820943D01*
X159559577Y-99668216D01*
X159546702Y-99645915D01*
X159480524Y-99531290D01*
X159480518Y-99531282D01*
X159368717Y-99419481D01*
X159368709Y-99419475D01*
X159231790Y-99340426D01*
X159231786Y-99340424D01*
X159231784Y-99340423D01*
X159079057Y-99299500D01*
X158920943Y-99299500D01*
X158768216Y-99340423D01*
X158768209Y-99340426D01*
X158631290Y-99419475D01*
X158631282Y-99419481D01*
X158587583Y-99463181D01*
X158526260Y-99496666D01*
X158499902Y-99499500D01*
X157717255Y-99499500D01*
X157650216Y-99479815D01*
X157629574Y-99463181D01*
X155778574Y-97612181D01*
X155745089Y-97550858D01*
X155750073Y-97481166D01*
X155791945Y-97425233D01*
X155857409Y-97400816D01*
X155866255Y-97400500D01*
X156882745Y-97400500D01*
X156949784Y-97420185D01*
X156970426Y-97436819D01*
X157963181Y-98429574D01*
X157996666Y-98490897D01*
X157999500Y-98517255D01*
X157999500Y-98579057D01*
X158010252Y-98619182D01*
X158040423Y-98731783D01*
X158040426Y-98731790D01*
X158119475Y-98868709D01*
X158119479Y-98868714D01*
X158119480Y-98868716D01*
X158231284Y-98980520D01*
X158231286Y-98980521D01*
X158231290Y-98980524D01*
X158265194Y-99000098D01*
X158368216Y-99059577D01*
X158520943Y-99100500D01*
X158520945Y-99100500D01*
X158679055Y-99100500D01*
X158679057Y-99100500D01*
X158831784Y-99059577D01*
X158968716Y-98980520D01*
X159080520Y-98868716D01*
X159159577Y-98731784D01*
X159200500Y-98579057D01*
X159200500Y-98420943D01*
X159159577Y-98268216D01*
X159108101Y-98179056D01*
X159080524Y-98131290D01*
X159080518Y-98131282D01*
X158968717Y-98019481D01*
X158968709Y-98019475D01*
X158831790Y-97940426D01*
X158831786Y-97940424D01*
X158831784Y-97940423D01*
X158679057Y-97899500D01*
X158679056Y-97899500D01*
X158617255Y-97899500D01*
X158550216Y-97879815D01*
X158529574Y-97863181D01*
X157612556Y-96946163D01*
X157579071Y-96884840D01*
X157584055Y-96815148D01*
X157625927Y-96759215D01*
X157691391Y-96734798D01*
X157700237Y-96734482D01*
X160118743Y-96734482D01*
X160118745Y-96734482D01*
X160220606Y-96707189D01*
X160311931Y-96654462D01*
X160970480Y-95995913D01*
X161023207Y-95904588D01*
X161050500Y-95802727D01*
X161050500Y-95697273D01*
X161050500Y-94797273D01*
X161041403Y-94763321D01*
X161023207Y-94695412D01*
X160970480Y-94604087D01*
X160554894Y-94188501D01*
X160521409Y-94127178D01*
X160526393Y-94057486D01*
X160568265Y-94001553D01*
X160633729Y-93977136D01*
X160674661Y-93981044D01*
X160747273Y-94000500D01*
X160747276Y-94000500D01*
X163752725Y-94000500D01*
X163752727Y-94000500D01*
X163854588Y-93973207D01*
X163945913Y-93920480D01*
X165420480Y-92445913D01*
X165473207Y-92354588D01*
X165500500Y-92252727D01*
X165500500Y-92147273D01*
X165500500Y-91500098D01*
X165520185Y-91433059D01*
X165536819Y-91412417D01*
X165548737Y-91400499D01*
X165580520Y-91368716D01*
X165659577Y-91231784D01*
X165700500Y-91079057D01*
X165700500Y-90920943D01*
X165659577Y-90768216D01*
X165659573Y-90768209D01*
X165580524Y-90631290D01*
X165580518Y-90631282D01*
X165468717Y-90519481D01*
X165468709Y-90519475D01*
X165331790Y-90440426D01*
X165331786Y-90440424D01*
X165331784Y-90440423D01*
X165179057Y-90399500D01*
X165020943Y-90399500D01*
X164868216Y-90440423D01*
X164868209Y-90440426D01*
X164731290Y-90519475D01*
X164731282Y-90519481D01*
X164619481Y-90631282D01*
X164619475Y-90631290D01*
X164540426Y-90768209D01*
X164540423Y-90768216D01*
X164499500Y-90920943D01*
X164499500Y-91079057D01*
X164537127Y-91219481D01*
X164540423Y-91231783D01*
X164540426Y-91231790D01*
X164619475Y-91368709D01*
X164619481Y-91368717D01*
X164663181Y-91412417D01*
X164696666Y-91473740D01*
X164699500Y-91500098D01*
X164699500Y-91982745D01*
X164679815Y-92049784D01*
X164663181Y-92070426D01*
X163570426Y-93163181D01*
X163509103Y-93196666D01*
X163482745Y-93199500D01*
X161224500Y-93199500D01*
X161219648Y-93198075D01*
X161214701Y-93199112D01*
X161186458Y-93188329D01*
X161157461Y-93179815D01*
X161154151Y-93175995D01*
X161149427Y-93174192D01*
X161131495Y-93149848D01*
X161111706Y-93127011D01*
X161110171Y-93120901D01*
X161107988Y-93117937D01*
X161104589Y-93098675D01*
X161100751Y-93083393D01*
X161100479Y-93079134D01*
X161100500Y-93079057D01*
X161100500Y-92920943D01*
X161087231Y-92871423D01*
X161086447Y-92859128D01*
X161091533Y-92836582D01*
X161092084Y-92813478D01*
X161099078Y-92803143D01*
X161101825Y-92790971D01*
X161118293Y-92774754D01*
X161131247Y-92755616D01*
X161142716Y-92750704D01*
X161151609Y-92741948D01*
X161174231Y-92737209D01*
X161195476Y-92728112D01*
X161210196Y-92727235D01*
X162825990Y-92727235D01*
X162825992Y-92727235D01*
X162927853Y-92699942D01*
X163019178Y-92647215D01*
X163520480Y-92145913D01*
X163535557Y-92119799D01*
X163573207Y-92054587D01*
X163600500Y-91952727D01*
X163600500Y-90139660D01*
X163573207Y-90037800D01*
X163573207Y-90037799D01*
X163520480Y-89946474D01*
X162436819Y-88862813D01*
X162403334Y-88801490D01*
X162400500Y-88775132D01*
X162400500Y-88720945D01*
X162400500Y-88720943D01*
X162359577Y-88568216D01*
X162283716Y-88436819D01*
X162280524Y-88431290D01*
X162280518Y-88431282D01*
X162168717Y-88319481D01*
X162168709Y-88319475D01*
X162031790Y-88240426D01*
X162031786Y-88240424D01*
X162031784Y-88240423D01*
X161879057Y-88199500D01*
X161720943Y-88199500D01*
X161568216Y-88240423D01*
X161568209Y-88240426D01*
X161431290Y-88319475D01*
X161431282Y-88319481D01*
X161387583Y-88363181D01*
X161326260Y-88396666D01*
X161299902Y-88399500D01*
X160617255Y-88399500D01*
X160550216Y-88379815D01*
X160529574Y-88363181D01*
X160330574Y-88164181D01*
X160297089Y-88102858D01*
X160302073Y-88033166D01*
X160343945Y-87977233D01*
X160409409Y-87952816D01*
X160418255Y-87952500D01*
X163510661Y-87952500D01*
X163510663Y-87952500D01*
X163612524Y-87925207D01*
X163703849Y-87872480D01*
X164863910Y-86712419D01*
X164925233Y-86678934D01*
X164951591Y-86676100D01*
X164955252Y-86676100D01*
X164955254Y-86676100D01*
X165107981Y-86635177D01*
X165244913Y-86556120D01*
X165356717Y-86444316D01*
X165435774Y-86307384D01*
X165476697Y-86154657D01*
X165476697Y-85996543D01*
X165435774Y-85843816D01*
X165425638Y-85826260D01*
X165356721Y-85706890D01*
X165356715Y-85706882D01*
X165244914Y-85595081D01*
X165244906Y-85595075D01*
X165107987Y-85516026D01*
X165107983Y-85516024D01*
X165107981Y-85516023D01*
X164955254Y-85475100D01*
X164800235Y-85475100D01*
X164791549Y-85472549D01*
X164782588Y-85473838D01*
X164758547Y-85462859D01*
X164733196Y-85455415D01*
X164727268Y-85448574D01*
X164719032Y-85444813D01*
X164704742Y-85422578D01*
X164687441Y-85402611D01*
X164685153Y-85392096D01*
X164681258Y-85386035D01*
X164676235Y-85351100D01*
X164676235Y-85175833D01*
X164695920Y-85108794D01*
X164712554Y-85088152D01*
X164756255Y-85044451D01*
X164835312Y-84907519D01*
X164876235Y-84754792D01*
X164876235Y-84596678D01*
X164835312Y-84443951D01*
X164822030Y-84420945D01*
X164756259Y-84307025D01*
X164756253Y-84307017D01*
X164644452Y-84195216D01*
X164644444Y-84195210D01*
X164507525Y-84116161D01*
X164507521Y-84116159D01*
X164507519Y-84116158D01*
X164354792Y-84075235D01*
X164196678Y-84075235D01*
X164043951Y-84116158D01*
X164043944Y-84116161D01*
X163907025Y-84195210D01*
X163907017Y-84195216D01*
X163795216Y-84307017D01*
X163795210Y-84307025D01*
X163716161Y-84443944D01*
X163716158Y-84443951D01*
X163675235Y-84596678D01*
X163675235Y-84754791D01*
X163716158Y-84907518D01*
X163716161Y-84907525D01*
X163795210Y-85044444D01*
X163795216Y-85044452D01*
X163838916Y-85088152D01*
X163872401Y-85149475D01*
X163875235Y-85175833D01*
X163875235Y-85949846D01*
X163855550Y-86016885D01*
X163838916Y-86037527D01*
X163461681Y-86414762D01*
X163400358Y-86448247D01*
X163330666Y-86443263D01*
X163274733Y-86401391D01*
X163250316Y-86335927D01*
X163250000Y-86327081D01*
X163250000Y-82022919D01*
X163269685Y-81955880D01*
X163322489Y-81910125D01*
X163391647Y-81900181D01*
X163455203Y-81929206D01*
G37*
%TD.AperFunction*%
%TA.AperFunction,Conductor*%
G36*
X142408242Y-83078643D02*
G01*
X142428884Y-83095277D01*
X150654087Y-91320480D01*
X150745412Y-91373207D01*
X150847273Y-91400500D01*
X152633745Y-91400500D01*
X152700784Y-91420185D01*
X152746539Y-91472989D01*
X152756483Y-91542147D01*
X152727458Y-91605703D01*
X152721426Y-91612181D01*
X151049178Y-93284428D01*
X150987855Y-93317913D01*
X150918163Y-93312929D01*
X150862230Y-93271057D01*
X150854113Y-93258752D01*
X150780520Y-93131284D01*
X150668716Y-93019480D01*
X150668714Y-93019479D01*
X150668709Y-93019475D01*
X150531790Y-92940426D01*
X150531786Y-92940424D01*
X150531784Y-92940423D01*
X150379057Y-92899500D01*
X150379056Y-92899500D01*
X150317255Y-92899500D01*
X150250216Y-92879815D01*
X150229574Y-92863181D01*
X148136819Y-90770426D01*
X148103334Y-90709103D01*
X148100500Y-90682745D01*
X148100500Y-90620945D01*
X148100500Y-90620943D01*
X148059577Y-90468216D01*
X147996106Y-90358280D01*
X147980524Y-90331290D01*
X147980518Y-90331282D01*
X147868717Y-90219481D01*
X147868709Y-90219475D01*
X147731790Y-90140426D01*
X147731786Y-90140424D01*
X147731784Y-90140423D01*
X147579057Y-90099500D01*
X147420943Y-90099500D01*
X147268216Y-90140423D01*
X147268209Y-90140426D01*
X147131290Y-90219475D01*
X147131282Y-90219481D01*
X147019481Y-90331282D01*
X147019475Y-90331290D01*
X146940426Y-90468209D01*
X146940423Y-90468216D01*
X146899500Y-90620943D01*
X146899500Y-90779056D01*
X146940423Y-90931783D01*
X146940426Y-90931790D01*
X147019475Y-91068709D01*
X147019479Y-91068714D01*
X147019480Y-91068716D01*
X147131284Y-91180520D01*
X147131286Y-91180521D01*
X147131290Y-91180524D01*
X147269623Y-91260390D01*
X147317839Y-91310956D01*
X147331063Y-91379563D01*
X147305095Y-91444428D01*
X147295306Y-91455458D01*
X147219478Y-91531286D01*
X147219475Y-91531290D01*
X147140426Y-91668209D01*
X147140423Y-91668216D01*
X147099500Y-91820943D01*
X147099500Y-91979057D01*
X147123525Y-92068717D01*
X147140423Y-92131783D01*
X147140426Y-92131790D01*
X147219475Y-92268709D01*
X147219481Y-92268717D01*
X147263181Y-92312417D01*
X147296666Y-92373740D01*
X147299500Y-92400098D01*
X147299500Y-94582745D01*
X147279815Y-94649784D01*
X147263181Y-94670426D01*
X143576071Y-98357535D01*
X143514748Y-98391020D01*
X143445056Y-98386036D01*
X143389123Y-98344164D01*
X143368615Y-98301948D01*
X143359577Y-98268216D01*
X143308101Y-98179056D01*
X143280524Y-98131290D01*
X143280518Y-98131282D01*
X143168717Y-98019481D01*
X143168709Y-98019475D01*
X143031790Y-97940426D01*
X143031786Y-97940424D01*
X143031784Y-97940423D01*
X142879057Y-97899500D01*
X142720943Y-97899500D01*
X142568216Y-97940423D01*
X142568209Y-97940426D01*
X142431290Y-98019475D01*
X142431282Y-98019481D01*
X142319481Y-98131282D01*
X142319475Y-98131290D01*
X142240426Y-98268209D01*
X142239561Y-98270298D01*
X142238359Y-98271788D01*
X142236359Y-98275254D01*
X142235818Y-98274941D01*
X142195719Y-98324701D01*
X142129425Y-98346765D01*
X142061726Y-98329485D01*
X142014116Y-98278347D01*
X142001000Y-98222844D01*
X142001000Y-98121445D01*
X142001000Y-98121443D01*
X141960077Y-97968716D01*
X141917112Y-97894297D01*
X141900500Y-97832298D01*
X141900500Y-95017255D01*
X141920185Y-94950216D01*
X141936819Y-94929574D01*
X147029574Y-89836819D01*
X147090897Y-89803334D01*
X147117255Y-89800500D01*
X147179055Y-89800500D01*
X147179057Y-89800500D01*
X147331784Y-89759577D01*
X147468716Y-89680520D01*
X147580520Y-89568716D01*
X147659577Y-89431784D01*
X147700500Y-89279057D01*
X147700500Y-89120943D01*
X147659577Y-88968216D01*
X147659573Y-88968209D01*
X147580524Y-88831290D01*
X147580518Y-88831282D01*
X147468717Y-88719481D01*
X147468709Y-88719475D01*
X147331790Y-88640426D01*
X147331786Y-88640424D01*
X147331784Y-88640423D01*
X147179057Y-88599500D01*
X147020943Y-88599500D01*
X146868216Y-88640423D01*
X146868209Y-88640426D01*
X146731290Y-88719475D01*
X146731282Y-88719481D01*
X146619481Y-88831282D01*
X146619475Y-88831290D01*
X146540426Y-88968209D01*
X146540423Y-88968216D01*
X146499500Y-89120943D01*
X146499500Y-89182745D01*
X146479815Y-89249784D01*
X146463181Y-89270426D01*
X141411681Y-94321926D01*
X141350358Y-94355411D01*
X141280666Y-94350427D01*
X141224733Y-94308555D01*
X141200316Y-94243091D01*
X141200000Y-94234245D01*
X141200000Y-83534671D01*
X141208644Y-83505230D01*
X141215168Y-83475244D01*
X141218922Y-83470228D01*
X141219685Y-83467632D01*
X141236319Y-83446990D01*
X141388032Y-83295277D01*
X141449355Y-83261792D01*
X141475713Y-83258958D01*
X141537513Y-83258958D01*
X141537515Y-83258958D01*
X141690242Y-83218035D01*
X141827174Y-83138978D01*
X141870875Y-83095277D01*
X141932198Y-83061792D01*
X141958556Y-83058958D01*
X142341203Y-83058958D01*
X142408242Y-83078643D01*
G37*
%TD.AperFunction*%
%TA.AperFunction,Conductor*%
G36*
X159449784Y-88420185D02*
G01*
X159470426Y-88436819D01*
X160154087Y-89120480D01*
X160245412Y-89173207D01*
X160347273Y-89200500D01*
X160452727Y-89200500D01*
X161299902Y-89200500D01*
X161366941Y-89220185D01*
X161387583Y-89236819D01*
X161431284Y-89280520D01*
X161431286Y-89280521D01*
X161431290Y-89280524D01*
X161568209Y-89359573D01*
X161568216Y-89359577D01*
X161720943Y-89400500D01*
X161790358Y-89400500D01*
X161857397Y-89420185D01*
X161878039Y-89436819D01*
X162763181Y-90321961D01*
X162796666Y-90383284D01*
X162799500Y-90409642D01*
X162799500Y-91043334D01*
X162779815Y-91110373D01*
X162727011Y-91156128D01*
X162657853Y-91166072D01*
X162643407Y-91163109D01*
X162526453Y-91131772D01*
X162502057Y-91125235D01*
X162343943Y-91125235D01*
X162191216Y-91166158D01*
X162191209Y-91166161D01*
X162054290Y-91245210D01*
X162054282Y-91245216D01*
X162010583Y-91288916D01*
X161949260Y-91322401D01*
X161922902Y-91325235D01*
X157291427Y-91325235D01*
X157259334Y-91321010D01*
X157248328Y-91318061D01*
X157179057Y-91299500D01*
X157020943Y-91299500D01*
X156868216Y-91340423D01*
X156868209Y-91340426D01*
X156731290Y-91419475D01*
X156731282Y-91419481D01*
X156619481Y-91531282D01*
X156619475Y-91531290D01*
X156540426Y-91668209D01*
X156540423Y-91668216D01*
X156499500Y-91820943D01*
X156499500Y-91979057D01*
X156523525Y-92068717D01*
X156540423Y-92131783D01*
X156540426Y-92131790D01*
X156619475Y-92268709D01*
X156619481Y-92268717D01*
X156675101Y-92324337D01*
X156708586Y-92385660D01*
X156703602Y-92455352D01*
X156694808Y-92474017D01*
X156640423Y-92568215D01*
X156640423Y-92568216D01*
X156599500Y-92720943D01*
X156599500Y-92800845D01*
X156579815Y-92867884D01*
X156527011Y-92913639D01*
X156457853Y-92923583D01*
X156394297Y-92894558D01*
X156387819Y-92888526D01*
X154970523Y-91471230D01*
X154937038Y-91409907D01*
X154942022Y-91340215D01*
X154970519Y-91295873D01*
X157829573Y-88436818D01*
X157890896Y-88403334D01*
X157917254Y-88400500D01*
X159382745Y-88400500D01*
X159449784Y-88420185D01*
G37*
%TD.AperFunction*%
%TA.AperFunction,Conductor*%
G36*
X158400158Y-80218804D02*
G01*
X158456091Y-80260676D01*
X158464206Y-80272979D01*
X158519480Y-80368716D01*
X158631284Y-80480520D01*
X158631286Y-80480521D01*
X158631290Y-80480524D01*
X158719221Y-80531290D01*
X158768216Y-80559577D01*
X158920943Y-80600500D01*
X158982745Y-80600500D01*
X159049784Y-80620185D01*
X159070426Y-80636819D01*
X159521926Y-81088319D01*
X159555411Y-81149642D01*
X159550427Y-81219334D01*
X159508555Y-81275267D01*
X159443091Y-81299684D01*
X159434245Y-81300000D01*
X157750000Y-81300000D01*
X157750000Y-86626500D01*
X157730315Y-86693539D01*
X157677511Y-86739294D01*
X157626000Y-86750500D01*
X154851098Y-86750500D01*
X154784059Y-86730815D01*
X154763417Y-86714181D01*
X154668717Y-86619481D01*
X154668709Y-86619475D01*
X154531790Y-86540426D01*
X154531786Y-86540424D01*
X154531784Y-86540423D01*
X154379057Y-86499500D01*
X154223500Y-86499500D01*
X154156461Y-86479815D01*
X154110706Y-86427011D01*
X154099500Y-86375500D01*
X154099500Y-85318255D01*
X154108144Y-85288814D01*
X154114668Y-85258828D01*
X154118422Y-85253812D01*
X154119185Y-85251216D01*
X154135819Y-85230574D01*
X154229574Y-85136819D01*
X154290897Y-85103334D01*
X154317255Y-85100500D01*
X154379055Y-85100500D01*
X154379057Y-85100500D01*
X154531784Y-85059577D01*
X154668716Y-84980520D01*
X154780520Y-84868716D01*
X154859577Y-84731784D01*
X154900500Y-84579057D01*
X154900500Y-84420943D01*
X154859577Y-84268216D01*
X154817431Y-84195216D01*
X154780524Y-84131290D01*
X154780518Y-84131282D01*
X154670523Y-84021287D01*
X154637038Y-83959964D01*
X154642022Y-83890272D01*
X154670521Y-83845927D01*
X158269145Y-80247303D01*
X158330466Y-80213820D01*
X158400158Y-80218804D01*
G37*
%TD.AperFunction*%
%TA.AperFunction,Conductor*%
G36*
X165606703Y-78556498D02*
G01*
X165613181Y-78562530D01*
X166964181Y-79913530D01*
X166997666Y-79974853D01*
X167000500Y-80001211D01*
X167000500Y-82953726D01*
X167027793Y-83055589D01*
X167036983Y-83071506D01*
X167080520Y-83146913D01*
X167080522Y-83146915D01*
X168163181Y-84229574D01*
X168196666Y-84290897D01*
X168199500Y-84317255D01*
X168199500Y-85799902D01*
X168179815Y-85866941D01*
X168163181Y-85887583D01*
X168119481Y-85931282D01*
X168119475Y-85931290D01*
X168040422Y-86068215D01*
X168039060Y-86071505D01*
X168037167Y-86073852D01*
X168036359Y-86075254D01*
X168036140Y-86075127D01*
X167995219Y-86125908D01*
X167928924Y-86147972D01*
X167861225Y-86130692D01*
X167813615Y-86079554D01*
X167800500Y-86024051D01*
X167800500Y-85254439D01*
X167800500Y-85254437D01*
X167773207Y-85152577D01*
X167720480Y-85061251D01*
X167645913Y-84986684D01*
X164311029Y-81651800D01*
X164277544Y-81590477D01*
X164282528Y-81520785D01*
X164324400Y-81464852D01*
X164336693Y-81456742D01*
X164468716Y-81380520D01*
X164580520Y-81268716D01*
X164659577Y-81131784D01*
X164700500Y-80979057D01*
X164700500Y-80820943D01*
X164659577Y-80668216D01*
X164620481Y-80600499D01*
X164580524Y-80531290D01*
X164580518Y-80531282D01*
X164536819Y-80487583D01*
X164503334Y-80426260D01*
X164500500Y-80399902D01*
X164500500Y-80117255D01*
X164520185Y-80050216D01*
X164536819Y-80029574D01*
X165321477Y-79244916D01*
X165321480Y-79244913D01*
X165321481Y-79244909D01*
X165321484Y-79244907D01*
X165332333Y-79226116D01*
X165342155Y-79209103D01*
X165374207Y-79153587D01*
X165401500Y-79051727D01*
X165401500Y-78650211D01*
X165421185Y-78583172D01*
X165473989Y-78537417D01*
X165543147Y-78527473D01*
X165606703Y-78556498D01*
G37*
%TD.AperFunction*%
%TA.AperFunction,Conductor*%
G36*
X163867711Y-79252071D02*
G01*
X163924444Y-79253410D01*
X163982315Y-79292559D01*
X164009834Y-79356782D01*
X163998262Y-79425687D01*
X163974395Y-79459211D01*
X163779522Y-79654084D01*
X163779520Y-79654087D01*
X163726793Y-79745412D01*
X163705169Y-79826114D01*
X163702901Y-79834577D01*
X163699500Y-79847270D01*
X163699500Y-80399902D01*
X163679815Y-80466941D01*
X163677405Y-80470552D01*
X163671059Y-80479704D01*
X163619480Y-80531284D01*
X163540706Y-80667725D01*
X163537785Y-80671939D01*
X163514420Y-80690793D01*
X163492700Y-80711504D01*
X163487519Y-80712502D01*
X163483412Y-80715817D01*
X163453570Y-80719046D01*
X163424093Y-80724728D01*
X163419193Y-80722766D01*
X163413947Y-80723334D01*
X163387097Y-80709917D01*
X163359229Y-80698760D01*
X163352089Y-80692422D01*
X163351447Y-80692102D01*
X163351133Y-80691574D01*
X163348199Y-80688970D01*
X163138751Y-80479522D01*
X163138749Y-80479520D01*
X163089809Y-80451264D01*
X163047425Y-80426793D01*
X162996493Y-80413146D01*
X162945563Y-80399500D01*
X162945562Y-80399500D01*
X160017255Y-80399500D01*
X159950216Y-80379815D01*
X159929574Y-80363181D01*
X159742464Y-80176071D01*
X159708979Y-80114748D01*
X159713963Y-80045056D01*
X159755835Y-79989123D01*
X159798049Y-79968615D01*
X159831784Y-79959577D01*
X159968716Y-79880520D01*
X160080520Y-79768716D01*
X160159577Y-79631784D01*
X160200500Y-79479057D01*
X160200500Y-79374500D01*
X160220185Y-79307461D01*
X160272989Y-79261706D01*
X160324500Y-79250500D01*
X163859307Y-79250500D01*
X163859309Y-79250500D01*
X163859310Y-79250499D01*
X163867365Y-79249439D01*
X163867711Y-79252071D01*
G37*
%TD.AperFunction*%
%TA.AperFunction,Conductor*%
G36*
X156256578Y-76765490D02*
G01*
X156296678Y-76776235D01*
X156296680Y-76776235D01*
X156303834Y-76777177D01*
X156367731Y-76805442D01*
X156375332Y-76812435D01*
X158404331Y-78841434D01*
X158437816Y-78902757D01*
X158432832Y-78972449D01*
X158390960Y-79028382D01*
X158378652Y-79036501D01*
X158304147Y-79079518D01*
X158304141Y-79079522D01*
X157354130Y-80029532D01*
X157292807Y-80063017D01*
X157223115Y-80058033D01*
X157178768Y-80029532D01*
X157068717Y-79919481D01*
X157068709Y-79919475D01*
X156931790Y-79840426D01*
X156931786Y-79840424D01*
X156931784Y-79840423D01*
X156779057Y-79799500D01*
X156779056Y-79799500D01*
X156717254Y-79799500D01*
X156650215Y-79779815D01*
X156629573Y-79763181D01*
X156136819Y-79270426D01*
X156103334Y-79209103D01*
X156100500Y-79182745D01*
X156100500Y-76885268D01*
X156120185Y-76818229D01*
X156172989Y-76772474D01*
X156242147Y-76762530D01*
X156256578Y-76765490D01*
G37*
%TD.AperFunction*%
%TA.AperFunction,Conductor*%
G36*
X161874462Y-75394920D02*
G01*
X161895104Y-75411554D01*
X163196924Y-76713374D01*
X163230409Y-76774697D01*
X163225425Y-76844389D01*
X163183553Y-76900322D01*
X163141338Y-76920829D01*
X163068220Y-76940421D01*
X163068209Y-76940426D01*
X162931290Y-77019475D01*
X162931282Y-77019481D01*
X162887583Y-77063181D01*
X162826260Y-77096666D01*
X162799902Y-77099500D01*
X162300098Y-77099500D01*
X162233059Y-77079815D01*
X162212417Y-77063181D01*
X162168717Y-77019481D01*
X162168709Y-77019475D01*
X162031790Y-76940426D01*
X162031786Y-76940424D01*
X162031784Y-76940423D01*
X161879057Y-76899500D01*
X161720943Y-76899500D01*
X161568216Y-76940423D01*
X161568209Y-76940426D01*
X161431290Y-77019475D01*
X161431282Y-77019481D01*
X161319481Y-77131282D01*
X161319475Y-77131290D01*
X161240426Y-77268209D01*
X161240423Y-77268216D01*
X161199500Y-77420943D01*
X161199500Y-77579057D01*
X161219739Y-77654588D01*
X161240423Y-77731783D01*
X161240426Y-77731790D01*
X161319475Y-77868709D01*
X161319479Y-77868714D01*
X161319480Y-77868716D01*
X161431284Y-77980520D01*
X161431286Y-77980521D01*
X161431290Y-77980524D01*
X161568209Y-78059573D01*
X161568216Y-78059577D01*
X161720943Y-78100500D01*
X161720945Y-78100500D01*
X161879055Y-78100500D01*
X161879057Y-78100500D01*
X162031784Y-78059577D01*
X162168716Y-77980520D01*
X162212417Y-77936819D01*
X162273740Y-77903334D01*
X162300098Y-77900500D01*
X162799902Y-77900500D01*
X162866941Y-77920185D01*
X162887583Y-77936819D01*
X162931284Y-77980520D01*
X162931286Y-77980521D01*
X162931290Y-77980524D01*
X163068209Y-78059573D01*
X163068216Y-78059577D01*
X163220943Y-78100500D01*
X163220945Y-78100500D01*
X163379055Y-78100500D01*
X163379057Y-78100500D01*
X163531784Y-78059577D01*
X163595162Y-78022985D01*
X163663061Y-78006513D01*
X163729088Y-78029365D01*
X163772278Y-78084286D01*
X163778920Y-78153840D01*
X163746904Y-78215943D01*
X163744843Y-78218054D01*
X163649714Y-78313182D01*
X163588394Y-78346666D01*
X163562035Y-78349500D01*
X159237965Y-78349500D01*
X159170926Y-78329815D01*
X159150284Y-78313181D01*
X157012435Y-76175332D01*
X156978950Y-76114009D01*
X156977177Y-76103834D01*
X156976235Y-76096680D01*
X156976235Y-76096678D01*
X156935312Y-75943951D01*
X156928510Y-75932170D01*
X156856259Y-75807025D01*
X156856253Y-75807017D01*
X156744452Y-75695216D01*
X156744444Y-75695210D01*
X156607525Y-75616160D01*
X156601818Y-75613797D01*
X156547414Y-75569956D01*
X156525348Y-75503662D01*
X156542627Y-75435963D01*
X156593763Y-75388352D01*
X156649269Y-75375235D01*
X161807423Y-75375235D01*
X161874462Y-75394920D01*
G37*
%TD.AperFunction*%
%TA.AperFunction,Conductor*%
G36*
X144037385Y-74993920D02*
G01*
X144083140Y-75046724D01*
X144093084Y-75115882D01*
X144064059Y-75179438D01*
X144058027Y-75185916D01*
X142080762Y-77163181D01*
X142019439Y-77196666D01*
X141993081Y-77199500D01*
X140417254Y-77199500D01*
X140350215Y-77179815D01*
X140329573Y-77163181D01*
X139836819Y-76670426D01*
X139803334Y-76609103D01*
X139800500Y-76582745D01*
X139800500Y-76520945D01*
X139800500Y-76520943D01*
X139759577Y-76368216D01*
X139759573Y-76368209D01*
X139680524Y-76231290D01*
X139680518Y-76231282D01*
X139568717Y-76119481D01*
X139568709Y-76119475D01*
X139431790Y-76040426D01*
X139431786Y-76040424D01*
X139431784Y-76040423D01*
X139431782Y-76040422D01*
X139431781Y-76040422D01*
X139398049Y-76031383D01*
X139338389Y-75995017D01*
X139307861Y-75932170D01*
X139316158Y-75862794D01*
X139342461Y-75823931D01*
X140155839Y-75010554D01*
X140217162Y-74977069D01*
X140243520Y-74974235D01*
X143970346Y-74974235D01*
X144037385Y-74993920D01*
G37*
%TD.AperFunction*%
%TD*%
M02*
